<svg width="16" height="17" viewBox="0 0 16 17" fill="none" xmlns="http://www.w3.org/2000/svg">
<g id="Icon/Outline/location-marker">
<g id="Icon">
<path d="M11.7718 11.2286C11.1474 11.853 9.84161 13.1588 8.9431 14.0573C8.4224 14.578 7.57902 14.5783 7.05832 14.0576C6.17546 13.1747 4.89496 11.8942 4.22933 11.2286C2.14654 9.1458 2.14654 5.76892 4.22933 3.68612C6.31213 1.60332 9.68901 1.60332 11.7718 3.68612C13.8546 5.76892 13.8546 9.1458 11.7718 11.2286Z" stroke="#6318AF" stroke-linecap="round" stroke-linejoin="round"/>
<path d="M10.0006 7.45736C10.0006 8.56193 9.10514 9.45736 8.00057 9.45736C6.896 9.45736 6.00057 8.56193 6.00057 7.45736C6.00057 6.35279 6.896 5.45736 8.00057 5.45736C9.10514 5.45736 10.0006 6.35279 10.0006 7.45736Z" stroke="#6318AF" stroke-linecap="round" stroke-linejoin="round"/>
</g>
</g>
</svg>
