<?xml version="1.0" encoding="UTF-8" standalone="no"?>
<!DOCTYPE svg PUBLIC "-//W3C//DTD SVG 1.1//EN" "http://www.w3.org/Graphics/SVG/1.1/DTD/svg11.dtd">
<svg xmlns="http://www.w3.org/2000/svg" version="1.1" viewBox="0 0 51 51">
<g stroke-width="2.00" fill="none" stroke-linecap="butt">
<path stroke="#fad26c" vector-effect="non-scaling-stroke" d="
  M 40.54 5.25
  Q 39.66 5.59 39.50 6.54"
/>
<path stroke="#af7ea9" vector-effect="non-scaling-stroke" d="
  M 39.50 6.54
  C 18.87 -7.18 -4.17 12.05 4.00 35.21"
/>
<path stroke="#fad26c" vector-effect="non-scaling-stroke" d="
  M 4.00 35.21
  L 2.50 36.04"
/>
<path stroke="#ae6d72" vector-effect="non-scaling-stroke" d="
  M 39.50 6.54
  C 52.89 17.37 52.06 38.72 35.97 46.45
  C 23.61 52.38 10.10 47.23 4.00 35.21"
/>
</g>
<path fill="#fae3a3" d="
  M 24.06 0.00
  L 27.56 0.00
  Q 34.85 0.75 40.54 5.25
  Q 39.66 5.59 39.50 6.54
  C 18.87 -7.18 -4.17 12.05 4.00 35.21
  L 2.50 36.04
  Q 0.32 31.76 0.00 26.94
  L 0.07 23.52
  Q 4.22 3.60 24.06 0.00
  Z"
/>
<path fill="#6318af" d="
  M 39.50 6.54
  C 52.89 17.37 52.06 38.72 35.97 46.45
  C 23.61 52.38 10.10 47.23 4.00 35.21
  C -4.17 12.05 18.87 -7.18 39.50 6.54
  Z"
/>
<path fill="#f9c134" d="
  M 40.54 5.25
  Q 49.98 12.21 51.00 24.06
  L 51.00 27.56
  Q 47.22 47.72 26.94 51.00
  L 23.19 51.00
  Q 8.76 48.97 2.50 36.04
  L 4.00 35.21
  C 10.10 47.23 23.61 52.38 35.97 46.45
  C 52.06 38.72 52.89 17.37 39.50 6.54
  Q 39.66 5.59 40.54 5.25
  Z"
/>
<path fill="#e7d795" d="
  M 29.17 11.56
  C 31.08 17.36 20.15 16.78 23.78 9.97
  A 0.87 0.87 0.0 0 1 24.53 9.51
  C 26.05 9.49 28.62 9.88 29.17 11.56
  Z"
/>
<path fill="#e7d795" d="
  M 30.81 34.87
  C 28.93 35.15 20.23 36.02 21.12 32.57
  A 1.08 1.06 -6.8 0 1 21.66 31.90
  Q 26.45 29.45 31.32 31.96
  A 1.02 1.01 -45.3 0 0 32.24 31.95
  Q 33.51 31.26 33.75 29.72
  A 0.59 0.59 0.0 0 0 32.98 29.07
  C 29.90 30.14 20.71 31.14 18.43 28.01
  A 2.38 2.37 -33.0 0 1 19.17 24.55
  Q 27.26 19.90 34.45 25.63
  A 0.63 0.63 0.0 0 0 35.26 25.61
  C 38.14 23.07 34.05 20.27 31.99 19.72
  Q 19.26 16.34 11.26 26.33
  A 0.71 0.70 37.9 0 1 10.28 26.45
  L 9.69 26.00
  A 0.63 0.62 -51.1 0 1 9.60 25.09
  Q 19.09 13.94 33.46 18.30
  C 37.44 19.51 40.47 24.67 35.67 27.52
  A 0.90 0.87 71.6 0 0 35.25 28.39
  Q 35.62 31.44 33.13 33.20
  A 0.95 0.93 -22.4 0 0 32.74 34.11
  Q 33.05 36.28 31.31 37.53
  A 1.08 1.07 75.6 0 0 30.86 38.30
  Q 30.52 41.94 26.74 42.03
  A 0.35 0.35 0.0 0 1 26.71 41.33
  Q 28.78 41.21 29.56 39.41
  Q 29.98 38.43 28.96 38.73
  Q 26.25 39.52 23.73 38.49
  A 1.03 1.03 0.0 0 1 23.61 36.64
  Q 27.00 34.73 30.17 36.86
  A 0.56 0.55 -66.7 0 0 31.02 36.52
  L 31.28 35.37
  A 0.42 0.41 2.3 0 0 30.81 34.87
  Z"
/>
<path fill="#6318af" d="
  M 32.8300 26.3473
  A 6.50 2.32 -0.2 0 1 26.3381 28.6900
  A 6.50 2.32 -0.2 0 1 19.8300 26.3927
  A 6.50 2.32 -0.2 0 1 26.3219 24.0500
  A 6.50 2.32 -0.2 0 1 32.8300 26.3473
  Z"
/>
<ellipse fill="#e7d795" cx="0.00" cy="0.00" transform="translate(26.46,26.38) rotate(0.5)" rx="4.25" ry="1.35"/>
<path fill="#6318af" d="
  M 29.99 32.55
  A 0.70 0.70 0.0 0 1 29.77 33.92
  L 23.18 33.89
  A 0.70 0.70 0.0 0 1 22.98 32.53
  Q 26.54 31.42 29.99 32.55
  Z"
/>
<path fill="#6318af" d="
  M 25.27 36.98
  L 28.39 37.03
  A 0.36 0.36 0.0 0 1 28.54 37.72
  Q 26.69 38.60 25.09 37.61
  Q 24.04 36.96 25.27 36.98
  Z"
/>
</svg>
