<svg width="112" height="87" viewBox="0 0 112 87" fill="none" xmlns="http://www.w3.org/2000/svg">
<g id="Frame 2271">
<g id="Group 736">
<g id="Mask group">
<mask id="mask0_1_4212" style="mask-type:alpha" maskUnits="userSpaceOnUse" x="9" y="1" width="95" height="86">
<rect id="Rectangle 201" x="9" y="1.00024" width="94.1071" height="85" rx="2" fill="#D9D9D9"/>
</mask>
<g mask="url(#mask0_1_4212)">
<g id="Group 548">
<path id="Vector" d="M48.835 23.8214C44.7963 23.8247 40.7856 23.13 36.9693 21.7662C31.8532 19.9409 27.6619 17.4233 24.512 14.2832C18.5536 8.3434 13.6686 7.44824 10.6205 7.74299C7.32088 8.06221 5.40027 9.80568 5.38126 9.82326L5.25 9.67226C5.26939 9.65429 7.2296 7.87126 10.5894 7.54228C12.5596 7.34949 14.62 7.6854 16.7134 8.54099C19.324 9.60793 21.9938 11.4908 24.6486 14.1373C27.7777 17.2567 31.9447 19.759 37.0335 21.5744C46.3756 24.9073 56.9046 24.1004 65.9205 19.3605C68.9057 17.7911 71.8561 16.7198 74.6897 16.1765C78.2628 15.4912 81.6515 15.6503 84.7623 16.649C91.5981 18.8434 96.2673 18.727 98.9806 18.2432C101.908 17.7211 103.236 16.6762 103.249 16.6657L103.37 16.8258C103.315 16.8699 101.989 17.9124 99.014 18.4431C96.2793 18.9309 91.5767 19.049 84.7039 16.8426C77.745 14.6089 70.6969 17.0771 66.0098 19.5412C61.5535 21.8964 56.6875 23.3129 51.6953 23.708C50.7385 23.7836 49.785 23.8214 48.835 23.8214Z" fill="#7E7E7E"/>
<path id="Vector_2" d="M48.4379 26.3382C49.5381 26.3382 50.43 25.4179 50.43 24.2826C50.43 23.1474 49.5381 22.2271 48.4379 22.2271C47.3377 22.2271 46.4458 23.1474 46.4458 24.2826C46.4458 25.4179 47.3377 26.3382 48.4379 26.3382Z" fill="#F7E5B7"/>
<path id="Vector_3" d="M79.3009 18.1235C80.4011 18.1235 81.293 17.2032 81.293 16.0679C81.293 14.9326 80.4011 14.0123 79.3009 14.0123C78.2007 14.0123 77.3088 14.9326 77.3088 16.0679C77.3088 17.2032 78.2007 18.1235 79.3009 18.1235Z" fill="#F7E5B7"/>
<path id="Vector_4" d="M15.1178 10.1114C16.218 10.1114 17.1099 9.19107 17.1099 8.05581C17.1099 6.92055 16.218 6.00024 15.1178 6.00024C14.0176 6.00024 13.1257 6.92055 13.1257 8.05581C13.1257 9.19107 14.0176 10.1114 15.1178 10.1114Z" fill="#F7E5B7"/>
<path id="Vector_5" d="M62.7236 55.1367V74.9976H65.75V56.8854H77.8554V74.9976H80.8818V35.2758H77.8554C76.8526 35.2758 75.3133 40.6651 75.3133 46.0806C75.3133 50.1625 75.7753 53.6608 76.4322 55.1367H62.7236ZM77.8554 55.1367H77.826C77.8359 55.1145 77.8456 55.091 77.8554 55.0679V55.1367Z" fill="#7E7E7E"/>
<path id="Vector_6" d="M73.9389 25.4454C71.4547 25.4454 69.4409 27.7515 69.4409 30.5962V34.2104H70.5182L71.1418 32.8713L70.9859 34.2104H77.91L78.477 32.9931L78.3352 34.2104H79.1148V31.3726C79.1148 28.0991 76.7975 25.4454 73.9389 25.4454Z" fill="#030303"/>
<path id="Vector_7" d="M68.7844 49.0593L66.0227 50.2704L56.4258 58.3208C56.0729 58.7683 55.8566 59.3138 55.8044 59.8882C55.7353 60.8143 52.8356 65.6588 53.8712 66.3C54.9068 66.9412 58.6351 68.8647 58.8423 67.5823C59.0494 66.3 60.1541 60.8143 60.1541 60.8143L69.4057 52.2652L68.7844 49.0593Z" fill="#6318AF"/>
<path id="Vector_8" d="M57.9457 66.5135L56.772 70.0756C56.772 70.0756 58.0147 71.4292 57.3934 72.5691V76.4874H56.4268L56.1506 74.4214C56.1506 74.4214 55.0496 76.4613 54.4936 76.4874C53.3279 76.5421 51.0194 76.97 50.9504 76.3288C50.8814 75.6876 52.6985 75.0626 52.6985 75.0626L54.6317 69.5769L55.4602 66.2285L57.9457 66.5135Z" fill="#030303"/>
<path id="Vector_9" d="M75.9653 48.1326C75.9653 48.1326 76.5867 54.402 74.7915 55.5419C72.9964 56.6817 65.0566 60.3151 65.0566 60.3151C65.0566 60.3151 68.4396 63.5922 67.7492 64.3759C67.0588 65.1596 63.9519 67.2968 63.5376 66.8694C63.1234 66.4419 58.4975 61.3125 59.0499 59.6739C59.6022 58.0353 67.2659 52.6922 67.2659 52.6922L68.1635 49.3438L68.4396 46.6366L71.3394 44.713L75.9653 48.1326Z" fill="#6318AF"/>
<path id="Vector_10" d="M72.8021 33.5363C74.3917 33.5363 75.6804 32.2066 75.6804 30.5663C75.6804 28.926 74.3917 27.5963 72.8021 27.5963C71.2125 27.5963 69.9238 28.926 69.9238 30.5663C69.9238 32.2066 71.2125 33.5363 72.8021 33.5363Z" fill="white"/>
<path id="Vector_11" d="M75.033 31.7827C75.033 31.7827 74.8949 34.4899 77.0353 35.3448C79.1756 36.1997 71.719 41.7566 71.719 41.7566V35.5586C71.719 35.5586 72.6856 34.4899 71.719 32.8513L75.033 31.7827Z" fill="white"/>
<path id="Vector_12" d="M79.6245 44.4994L79.0722 47.2778L77.4152 56.8243C77.4152 56.8243 78.796 60.8851 76.9319 60.8139C75.0677 60.7427 75.9653 56.3969 75.9653 56.3969L76.9319 48.489V45.4255L79.6245 44.4994Z" fill="white"/>
<path id="Vector_13" d="M67.7494 43.1456L67.1281 45.6391L64.2973 52.6921C64.2973 52.6921 62.3641 56.0405 63.9521 55.9693C65.5401 55.898 65.5401 52.6921 65.5401 52.6921L68.7851 46.9927V43.7868L67.7494 43.1456Z" fill="white"/>
<path id="Vector_14" d="M67.266 63.9482L69.5444 66.1568C69.5444 66.1568 71.1324 65.8005 71.7538 67.7241C72.3751 69.6476 72.7894 70.8588 72.7894 70.8588L71.9609 71.3575L70.9252 69.8614C70.9252 69.8614 70.3039 72.5686 69.6825 72.7823C69.0611 72.996 65.9542 74.4209 66.2304 72.7823L67.7493 70.5025C67.7493 70.5025 67.9564 67.9378 67.335 67.7241C66.7137 67.5104 65.0566 65.3731 65.0566 65.3731L67.266 63.9482Z" fill="#030303"/>
<path id="Vector_15" d="M76.075 50.3414C76.075 50.3414 69.585 47.9192 69.1707 48.1329C68.8624 48.2735 68.5339 48.3614 68.1982 48.3934L68.2041 47.4205C68.2041 47.4205 70.3444 46.6368 71.5182 47.1355C72.6919 47.6342 76.2821 49.8427 76.2821 49.8427L76.075 50.3414Z" fill="#7E7E7E"/>
<path id="Vector_16" d="M72.1332 40.3319C72.1332 40.3319 73.9973 38.1234 74.5496 36.7698C74.8991 35.9492 75.5405 35.2984 76.3416 34.9517C76.3416 34.9517 80.4873 35.9149 80.4182 37.6247C80.3492 39.3346 77.7946 41.9705 77.7946 41.9705C77.7946 41.9705 78.1398 51.4458 76.2757 51.3033C75.8736 50.8081 75.5898 50.2225 75.4472 49.5935C75.2401 48.5961 68.8191 47.5274 68.8191 47.5274C68.8191 47.5274 68.2668 48.5248 68.1977 48.0974C68.1287 47.6699 68.7501 37.1973 68.7501 37.1973L72.0425 34.9517L72.1332 40.3319Z" fill="#F7E5B7"/>
<path id="Vector_17" d="M79.8869 36.9359L79.9331 36.9627C80.0806 37.0481 80.2035 37.1726 80.289 37.3233C80.3744 37.4739 80.4195 37.6454 80.4195 37.82L80.4188 43.1071C80.4193 43.2508 80.4501 43.3927 80.5091 43.5229C80.568 43.6531 80.6538 43.7685 80.7603 43.8611C81.0262 44.0945 81.2729 44.4308 80.7639 44.6059C79.9354 44.8909 76.6904 46.3157 76.6214 45.817C76.5523 45.3183 76.4142 44.7484 76.6214 44.7484C76.7835 44.7484 77.7497 39.6397 78.526 37.4555C78.5734 37.3217 78.6484 37.2002 78.7458 37.0994C78.8432 36.9985 78.9607 36.9207 79.0901 36.8713C79.2195 36.8219 79.3578 36.802 79.4954 36.8132C79.6329 36.8244 79.7665 36.8662 79.8869 36.9359Z" fill="#F7E5B7"/>
<path id="Vector_18" d="M69.6825 36.9475L68.7159 37.2325L67.6112 42.1482C67.6112 42.1482 66.2994 42.4332 66.7137 42.9319C67.1279 43.4306 68.854 44.7129 68.854 44.7129L69.6825 36.9475Z" fill="#F7E5B7"/>
<path id="Vector_19" d="M75.2173 26.8644C75.0008 26.5645 74.7203 26.32 74.3976 26.1501C74.0748 25.9801 73.7184 25.8891 73.356 25.8843H73.2677C71.5651 25.8843 70.1848 27.4741 70.1848 29.4352L70.7553 29.4352L70.8475 28.7115L70.9825 29.4352H74.3662L74.6497 28.8229L74.5788 29.4352H75.2445C75.5551 31.0269 75.1088 32.6187 73.9055 34.2105H75.0395L75.6064 32.9861L75.4647 34.2105H77.6263L78.0515 31.3943C78.0515 29.2852 76.8639 27.4967 75.2173 26.8644Z" fill="#030303"/>
<path id="Vector_20" d="M17.3924 59.7255C18.1187 58.0937 18.6296 54.2258 18.6296 49.7125C18.6296 43.7249 16.9276 37.766 15.8188 37.766H12.4727V81.6851H15.8188V61.6591H29.2034V81.6851H32.5495V59.7255H17.3924ZM15.8188 59.6495C15.8296 59.6751 15.8404 59.701 15.8513 59.7255H15.8188V59.6495Z" fill="#7E7E7E"/>
<path id="Vector_21" d="M31.3393 51.7131C31.3393 51.7131 35.3692 53.4373 34.0914 54.4515C32.8137 55.4657 30.1599 53.2344 30.2581 52.9302C30.3564 52.6259 29.865 51.916 29.865 51.916L31.3393 51.7131Z" fill="white"/>
<path id="Vector_22" d="M27.8005 38.123L29.0783 39.3401L29.3731 42.8898L30.356 46.6424C30.356 46.6424 32.0269 50.1921 31.7321 50.9021C31.4372 51.612 32.0269 51.8148 32.0269 51.8148L29.7663 52.7276C29.7663 52.7276 27.3091 49.8878 27.3091 49.2793C27.3091 48.6708 27.8005 38.123 27.8005 38.123Z" fill="#F7E5B7"/>
<path id="Vector_23" opacity="0.6" d="M27.8005 38.123L29.0783 39.3401L29.3731 42.8898L30.356 46.6424C30.356 46.6424 32.0269 50.1921 31.7321 50.9021C31.4372 51.612 32.0269 51.8148 32.0269 51.8148L29.7663 52.7276C29.7663 52.7276 27.3091 49.8878 27.3091 49.2793C27.3091 48.6708 27.8005 38.123 27.8005 38.123Z" fill="#6318AF"/>
<path id="Vector_24" d="M39.8899 74.6346C39.8899 74.6346 39.3985 76.9673 39.3002 77.1701C39.2019 77.3729 41.1677 78.0829 41.1677 78.0829L43.5266 76.3587C43.5266 76.3587 42.5437 74.1275 42.5437 73.7218L39.8899 74.6346Z" fill="#F7E5B7"/>
<path id="Vector_25" d="M27.0148 51.9164L27.7028 52.7277C27.7028 52.7277 41.9547 54.5533 42.2496 57.3931C42.5445 60.2329 44.6085 73.6204 43.4291 74.0261C42.2496 74.4318 39.2026 75.9531 39.2026 75.1417C39.2026 74.3304 37.2369 63.1741 37.63 61.1457C37.63 61.1457 20.626 58.9144 20.2329 56.3789C19.8397 53.8434 20.626 52.7277 20.626 52.7277L27.0148 51.9164Z" fill="#030303"/>
<path id="Vector_26" opacity="0.1" d="M27.0148 51.9164L27.7028 52.7277C27.7028 52.7277 41.9547 54.5533 42.2496 57.3931C42.5445 60.2329 44.6085 73.6204 43.4291 74.0261C42.2496 74.4318 39.2026 75.9531 39.2026 75.1417C39.2026 74.3304 37.2369 63.1741 37.63 61.1457C37.63 61.1457 20.626 58.9144 20.2329 56.3789C19.8397 53.8434 20.626 52.7277 20.626 52.7277L27.0148 51.9164Z" fill="black"/>
<path id="Vector_27" d="M39.6934 76.9673C39.6934 76.9673 39.3003 76.0545 39.1037 76.3588C38.9071 76.663 38.2191 80.2128 38.9071 80.2128C39.5952 80.2128 45.8856 81.8355 46.7702 81.6326C47.6548 81.4298 49.3258 81.7341 49.1292 80.7199C48.9326 79.7056 47.9497 79.6042 47.9497 79.6042C47.9497 79.6042 44.313 77.373 44.1164 76.2573C43.9199 75.1417 42.8387 75.7502 42.8387 75.7502V76.4602C42.8387 76.4602 40.7746 78.0829 39.6934 76.9673Z" fill="#030303"/>
<path id="Vector_28" d="M21.0186 30.4152C21.0186 30.4152 21.7066 33.8635 20.2323 34.1677C18.7579 34.472 22.0998 36.5004 22.0998 36.5004L24.2621 37.7175L25.8347 36.0947C25.8347 36.0947 24.4096 33.1028 25.4907 30.8716C26.5719 28.6403 21.0186 30.4152 21.0186 30.4152Z" fill="white"/>
<path id="Vector_29" d="M25.8347 36.0947L24.2621 37.7175L22.0998 36.5004C22.0998 36.5004 18.7579 34.472 20.2323 34.1677C21.1808 33.972 21.2338 32.475 21.1523 31.4324C21.1256 31.0911 21.081 30.7515 21.0186 30.4152C21.0186 30.4152 26.5719 28.6403 25.4907 30.8716C25.3265 31.2161 25.2125 31.5839 25.1526 31.9628C24.8214 33.9679 25.8347 36.0947 25.8347 36.0947Z" fill="white"/>
<path id="Vector_30" d="M31.3394 77.576V79.9087H35.0743L35.3692 78.9959L34.976 76.5618L31.3394 77.576Z" fill="#F7E5B7"/>
<path id="Vector_31" d="M15.9075 53.9452C15.9075 53.9452 15.9075 59.929 18.2664 60.1319C20.6253 60.3347 29.0782 61.4503 29.0782 61.4503C29.0782 61.4503 29.5696 71.3896 30.4542 74.635C31.3388 77.8805 30.5525 78.0833 31.3388 78.2862C32.1251 78.489 35.467 77.7791 35.3687 77.0691C35.2704 76.3592 34.8772 58.4077 34.8772 58.4077C34.8772 58.4077 35.7618 54.5537 23.9672 52.7281L15.9075 53.9452Z" fill="#030303"/>
<path id="Vector_32" d="M31.6336 79.1983C31.6336 79.1983 31.0439 77.8799 30.9456 78.2856C30.8473 78.6912 29.6678 82.241 30.8473 82.5452C32.0268 82.8495 35.7617 84.4722 38.219 84.3708C40.6762 84.2694 40.9711 84.168 40.9711 84.168C40.9711 84.168 41.6591 83.1537 40.7745 82.5452C39.8899 81.9367 36.2532 78.387 36.0566 77.9813C35.86 77.5756 34.3857 77.2713 34.3857 77.9813C34.3857 78.6912 32.3216 80.1111 31.6336 79.1983Z" fill="#030303"/>
<path id="Vector_33" opacity="0.1" d="M25.4905 30.8716C25.3262 31.2161 25.2122 31.5839 25.1523 31.9628C24.6629 32.2681 24.3356 32.19 23.7213 32.19C22.8101 32.19 22.4425 30.9882 21.8538 30.3645C21.8076 29.7853 21.0183 30.4152 21.0183 30.4152C21.0183 30.4152 26.5716 28.6403 25.4905 30.8716Z" fill="black"/>
<path id="Vector_34" d="M23.4757 32.1392C25.2671 32.1392 26.7192 30.6408 26.7192 28.7923C26.7192 26.9439 25.2671 25.4454 23.4757 25.4454C21.6844 25.4454 20.2322 26.9439 20.2322 28.7923C20.2322 30.6408 21.6844 32.1392 23.4757 32.1392Z" fill="white"/>
<path id="Vector_35" d="M29.0787 39.3404C29.0787 39.3404 28.5872 42.9915 28.2924 44.31C27.9975 45.6284 27.6044 51.7137 27.4078 52.525C27.2112 53.3364 26.0317 53.5393 23.6728 53.235C23.5247 53.2158 23.3758 53.2042 23.2266 53.2005C21.7739 53.1528 20.1118 53.7137 18.5736 54.1539C17.689 54.4074 16.8447 54.6204 16.1046 54.6549C14.9841 54.7076 14.6558 53.4257 14.6941 52.0382C14.7305 50.7471 15.0853 49.3627 15.4165 48.8739C16.0132 47.9936 15.4264 40.0898 15.6465 37.4833V37.4823C15.6799 37.0848 15.732 36.8109 15.8097 36.7034C16.3994 35.892 20.2327 33.8636 20.6622 33.9458C21.0907 34.0279 24.754 36.3991 24.754 36.3991C25.6386 36.3991 25.6101 35.4093 25.6101 35.4093C25.6101 35.4093 26.2283 36.602 27.4078 36.9063C28.5872 37.2105 29.0787 39.3404 29.0787 39.3404Z" fill="#6318AF"/>
<path id="Vector_36" d="M22.5085 52.4889C22.5085 52.4889 28.8398 52.6969 27.7307 53.4731C26.6216 54.2493 21.7072 54.9592 21.6089 53.945C21.5106 52.9308 22.5085 52.4889 22.5085 52.4889Z" fill="white"/>
<path id="Vector_37" opacity="0.1" d="M23.2266 53.2004C23.2472 53.5898 22.2319 54.4671 21.9036 55.0604C21.7217 55.389 20.3143 54.9559 18.5736 54.1537C17.2378 53.5351 15.9419 52.8284 14.6941 52.0381C14.7305 50.747 15.0853 49.3626 15.4165 48.8737C16.0131 47.9934 15.4263 40.0897 15.6465 37.4832V37.4822C15.699 37.4547 15.7536 37.4316 15.8097 37.4132H16.9891C21.019 39.3402 16.3994 47.6567 16.3994 47.6567C16.3994 47.6567 22.4933 52.8292 23.083 53.032C23.1217 53.0396 23.1568 53.0602 23.1828 53.0907C23.2088 53.1212 23.2242 53.1598 23.2266 53.2004Z" fill="black"/>
<path id="Vector_38" d="M16.9894 36.8047H15.8099C15.8099 36.8047 14.7287 37.1089 13.8441 39.1374C12.9595 41.1658 9.71599 47.4539 12.5664 49.888C15.4167 52.3221 21.5107 55.1618 21.9038 54.4519C22.297 53.742 23.673 52.6263 23.0833 52.4235C22.4935 52.2206 16.3996 47.0482 16.3996 47.0482C16.3996 47.0482 21.0192 38.7317 16.9894 36.8047Z" fill="#6318AF"/>
<path id="Vector_39" d="M22.9773 27.2348C22.9773 27.2348 23.1196 25.2016 24.8756 26.0306C26.6316 26.8597 26.517 24.5746 25.9864 24.1708C25.4557 23.767 25.4725 23.667 23.5317 23.9372C21.5909 24.2074 17.8229 24.6651 19.0413 28.6918C20.2596 32.7186 21.3631 31.6827 21.3631 31.6827C21.3631 31.6827 20.3946 28.0592 21.3759 28.7495L22.3571 29.4399L22.875 29.3267L22.9773 27.2348Z" fill="#030303"/>
<path id="Vector_40" d="M95.4333 56.5122C95.4333 54.6815 82.2499 53.1975 65.9873 53.1975C49.7247 53.1975 36.5413 54.6815 36.5413 56.5122C36.5413 57.2217 38.5227 57.879 41.8951 58.4182V81.0958H43.5012V58.652C48.9026 59.3705 56.9709 59.8268 65.9873 59.8268C75.0782 59.8268 83.2057 59.363 88.6072 58.6342V81.0958H90.2133V58.3964C93.5039 57.8614 95.4333 57.2122 95.4333 56.5122Z" fill="#7E7E7E"/>
<path id="Vector_41" d="M69.6765 56.5819C72.9878 56.5819 75.6722 55.9008 75.6722 55.0606C75.6722 54.2204 72.9878 53.5393 69.6765 53.5393C66.3652 53.5393 63.6809 54.2204 63.6809 55.0606C63.6809 55.9008 66.3652 56.5819 69.6765 56.5819Z" fill="#F7E5B7"/>
<path id="Vector_42" d="M69.6767 56.3073C72.3908 56.3073 74.5911 55.749 74.5911 55.0603C74.5911 54.3716 72.3908 53.8134 69.6767 53.8134C66.9625 53.8134 64.7622 54.3716 64.7622 55.0603C64.7622 55.749 66.9625 56.3073 69.6767 56.3073Z" fill="#F7E5B7"/>
<path id="Vector_43" d="M47.365 57.799C50.6763 57.799 53.3606 57.1179 53.3606 56.2777C53.3606 55.4375 50.6763 54.7563 47.365 54.7563C44.0537 54.7563 41.3694 55.4375 41.3694 56.2777C41.3694 57.1179 44.0537 57.799 47.365 57.799Z" fill="#F7E5B7"/>
<path id="Vector_44" d="M47.3651 57.5243C50.0793 57.5243 52.2796 56.9661 52.2796 56.2774C52.2796 55.5887 50.0793 55.0304 47.3651 55.0304C44.651 55.0304 42.4507 55.5887 42.4507 56.2774C42.4507 56.9661 44.651 57.5243 47.3651 57.5243Z" fill="#F7E5B7"/>
<path id="Vector_45" d="M69.537 54.9529C71.1156 54.9529 72.3953 54.7444 72.3953 54.4872C72.3953 54.23 71.1156 54.0215 69.537 54.0215C67.9584 54.0215 66.6787 54.23 66.6787 54.4872C66.6787 54.7444 67.9584 54.9529 69.537 54.9529Z" fill="white"/>
<path id="Vector_46" d="M68.0135 54.3127C68.512 54.3127 68.9161 54.0868 68.9161 53.8082C68.9161 53.5296 68.512 53.3037 68.0135 53.3037C67.515 53.3037 67.1108 53.5296 67.1108 53.8082C67.1108 54.0868 67.515 54.3127 68.0135 54.3127Z" fill="#F7E5B7"/>
<path id="Vector_47" d="M67.6751 54.3127C68.1736 54.3127 68.5777 54.0868 68.5777 53.8082C68.5777 53.5296 68.1736 53.3037 67.6751 53.3037C67.1766 53.3037 66.7725 53.5296 66.7725 53.8082C66.7725 54.0868 67.1766 54.3127 67.6751 54.3127Z" fill="#F7E5B7"/>
<path id="Vector_48" d="M71.6243 54.4293C72.1228 54.4293 72.5269 54.2034 72.5269 53.9248C72.5269 53.6462 72.1228 53.4203 71.6243 53.4203C71.1258 53.4203 70.7217 53.6462 70.7217 53.9248C70.7217 54.2034 71.1258 54.4293 71.6243 54.4293Z" fill="#F7E5B7"/>
<path id="Vector_49" d="M69.5554 54.3127C70.0539 54.3127 70.4581 54.0868 70.4581 53.8082C70.4581 53.5296 70.0539 53.3037 69.5554 53.3037C69.0569 53.3037 68.6528 53.5296 68.6528 53.8082C68.6528 54.0868 69.0569 54.3127 69.5554 54.3127Z" fill="#F7E5B7"/>
<path id="Vector_50" d="M71.0972 54.3127C71.5957 54.3127 71.9998 54.0868 71.9998 53.8082C71.9998 53.5296 71.5957 53.3037 71.0972 53.3037C70.5987 53.3037 70.1946 53.5296 70.1946 53.8082C70.1946 54.0868 70.5987 54.3127 71.0972 54.3127Z" fill="#F7E5B7"/>
<path id="Vector_51" d="M72.2634 53.498C70.6321 54.0692 68.8018 54.0692 66.7725 53.498V53.4193C66.7721 52.8255 66.993 52.2542 67.3895 51.8237C67.7859 51.3932 68.3275 51.1364 68.9023 51.1065C69.3861 51.0814 69.8708 51.082 70.3545 51.1084C70.8716 51.1395 71.3576 51.3737 71.7126 51.763C72.0676 52.1522 72.2647 52.6669 72.2634 53.2014V53.498Z" fill="#7E7E7E"/>
<path id="Vector_52" d="M71.4622 55.6365C70.2567 55.7622 69.0419 55.7622 67.8363 55.6365C67.5504 55.6076 67.285 55.47 67.0919 55.2505C66.8987 55.031 66.7915 54.7452 66.791 54.4487H72.5076C72.5071 54.7452 72.3999 55.031 72.2067 55.2505C72.0135 55.47 71.7482 55.6076 71.4622 55.6365Z" fill="#7E7E7E"/>
<path id="Vector_53" d="M68.7664 51.8289C68.6353 51.8851 68.4947 51.9141 68.3527 51.9141C68.2107 51.9141 68.0701 51.8851 67.939 51.8289C68.0701 51.7726 68.2107 51.7437 68.3527 51.7437C68.4947 51.7437 68.6353 51.7726 68.7664 51.8289Z" fill="#F7E5B7"/>
<path id="Vector_54" d="M69.5935 52.178C69.4624 52.2342 69.3218 52.2632 69.1798 52.2632C69.0378 52.2632 68.8972 52.2342 68.7661 52.178C68.8972 52.1217 69.0378 52.0928 69.1798 52.0928C69.3218 52.0928 69.4624 52.1217 69.5935 52.178Z" fill="#F7E5B7"/>
<path id="Vector_55" d="M69.6689 51.5573C69.5379 51.6135 69.3973 51.6425 69.2552 51.6425C69.1132 51.6425 68.9726 51.6135 68.8416 51.5573C68.9726 51.501 69.1132 51.472 69.2552 51.472C69.3973 51.472 69.5379 51.501 69.6689 51.5573Z" fill="#F7E5B7"/>
<path id="Vector_56" d="M71.2107 51.5573C71.0796 51.6135 70.939 51.6425 70.797 51.6425C70.655 51.6425 70.5144 51.6135 70.3833 51.5573C70.5144 51.501 70.655 51.472 70.797 51.472C70.939 51.472 71.0796 51.501 71.2107 51.5573Z" fill="#F7E5B7"/>
<path id="Vector_57" d="M70.7971 51.9064C70.666 51.9626 70.5254 51.9916 70.3834 51.9916C70.2414 51.9916 70.1008 51.9626 69.9697 51.9064C70.1008 51.8501 70.2414 51.8212 70.3834 51.8212C70.5254 51.8212 70.666 51.8501 70.7971 51.9064Z" fill="#F7E5B7"/>
<path id="Vector_58" d="M47.3234 56.1699C48.902 56.1699 50.1816 55.9614 50.1816 55.7042C50.1816 55.447 48.902 55.2385 47.3234 55.2385C45.7448 55.2385 44.4651 55.447 44.4651 55.7042C44.4651 55.9614 45.7448 56.1699 47.3234 56.1699Z" fill="white"/>
<path id="Vector_59" d="M45.8008 55.5297C46.2993 55.5297 46.7034 55.3039 46.7034 55.0252C46.7034 54.7466 46.2993 54.5208 45.8008 54.5208C45.3023 54.5208 44.8982 54.7466 44.8982 55.0252C44.8982 55.3039 45.3023 55.5297 45.8008 55.5297Z" fill="#F7E5B7"/>
<path id="Vector_60" d="M45.4624 55.5297C45.9609 55.5297 46.365 55.3039 46.365 55.0252C46.365 54.7466 45.9609 54.5208 45.4624 54.5208C44.9639 54.5208 44.5598 54.7466 44.5598 55.0252C44.5598 55.3039 44.9639 55.5297 45.4624 55.5297Z" fill="#F7E5B7"/>
<path id="Vector_61" d="M49.4107 55.6463C49.9092 55.6463 50.3133 55.4204 50.3133 55.1418C50.3133 54.8632 49.9092 54.6373 49.4107 54.6373C48.9122 54.6373 48.5081 54.8632 48.5081 55.1418C48.5081 55.4204 48.9122 55.6463 49.4107 55.6463Z" fill="#F7E5B7"/>
<path id="Vector_62" d="M47.3426 55.5297C47.8411 55.5297 48.2452 55.3039 48.2452 55.0252C48.2452 54.7466 47.8411 54.5208 47.3426 54.5208C46.8441 54.5208 46.4399 54.7466 46.4399 55.0252C46.4399 55.3039 46.8441 55.5297 47.3426 55.5297Z" fill="#F7E5B7"/>
<path id="Vector_63" d="M48.8845 55.5297C49.383 55.5297 49.7872 55.3039 49.7872 55.0252C49.7872 54.7466 49.383 54.5208 48.8845 54.5208C48.386 54.5208 47.9819 54.7466 47.9819 55.0252C47.9819 55.3039 48.386 55.5297 48.8845 55.5297Z" fill="#F7E5B7"/>
<path id="Vector_64" d="M50.0507 54.715C48.4194 55.2862 46.5891 55.2862 44.5598 54.715V54.6364C44.5595 54.0425 44.7804 53.4713 45.1768 53.0408C45.5733 52.6103 46.1149 52.3535 46.6897 52.3235C47.1734 52.2984 47.6581 52.2991 48.1418 52.3255C48.659 52.3565 49.1449 52.5908 49.4999 52.98C49.8549 53.3692 50.052 53.884 50.0507 54.4185V54.715Z" fill="#7E7E7E"/>
<path id="Vector_65" d="M49.2496 56.8536C48.044 56.9792 46.8293 56.9792 45.6237 56.8536C45.3377 56.8246 45.0724 56.687 44.8792 56.4675C44.686 56.248 44.5788 55.9623 44.5784 55.6658H50.2949C50.2945 55.9623 50.1873 56.248 49.9941 56.4675C49.8009 56.687 49.5356 56.8246 49.2496 56.8536Z" fill="#7E7E7E"/>
<path id="Vector_66" d="M46.5527 53.0459C46.4216 53.1022 46.281 53.1311 46.139 53.1311C45.997 53.1311 45.8564 53.1022 45.7253 53.0459C45.8564 52.9897 45.997 52.9607 46.139 52.9607C46.281 52.9607 46.4216 52.9897 46.5527 53.0459Z" fill="#F7E5B7"/>
<path id="Vector_67" d="M47.3799 53.395C47.2488 53.4513 47.1082 53.4802 46.9662 53.4802C46.8242 53.4802 46.6836 53.4513 46.5525 53.395C46.6836 53.3388 46.8242 53.3098 46.9662 53.3098C47.1082 53.3098 47.2488 53.3388 47.3799 53.395Z" fill="#F7E5B7"/>
<path id="Vector_68" d="M47.4551 52.7743C47.324 52.8306 47.1834 52.8595 47.0414 52.8595C46.8994 52.8595 46.7588 52.8306 46.6277 52.7743C46.7588 52.718 46.8994 52.6891 47.0414 52.6891C47.1834 52.6891 47.324 52.718 47.4551 52.7743Z" fill="#F7E5B7"/>
<path id="Vector_69" d="M48.9971 52.7743C48.866 52.8306 48.7254 52.8595 48.5834 52.8595C48.4414 52.8595 48.3008 52.8306 48.1697 52.7743C48.3008 52.718 48.4414 52.6891 48.5834 52.6891C48.7254 52.6891 48.866 52.718 48.9971 52.7743Z" fill="#F7E5B7"/>
<path id="Vector_70" d="M48.5835 53.1234C48.4524 53.1797 48.3118 53.2086 48.1698 53.2086C48.0278 53.2086 47.8872 53.1797 47.7561 53.1234C47.8872 53.0672 48.0278 53.0382 48.1698 53.0382C48.3118 53.0382 48.4524 53.0672 48.5835 53.1234Z" fill="#F7E5B7"/>
<path id="Vector_71" d="M74.8341 54.6477L74.8479 54.9619L74.8655 55.3693C74.8655 55.3693 73.052 55.4751 72.6866 55.8734C72.6781 55.882 72.6703 55.8912 72.6633 55.9011L71.9369 55.737L71.9351 55.3677C71.9351 55.3677 71.9451 55.362 71.9646 55.3511C71.969 55.3488 71.9746 55.3457 71.9802 55.3427C72.8691 54.8935 73.8444 54.656 74.8341 54.6477Z" fill="#F7E5B7"/>
<path id="Vector_72" opacity="0.1" d="M74.8339 54.6477L74.8477 54.9619C74.0435 54.9875 72.5215 55.4822 72.5215 55.4822L71.9644 55.3511C72.8571 54.8961 73.8382 54.6556 74.8339 54.6477Z" fill="black"/>
<path id="Vector_73" opacity="0.1" d="M71.9801 55.3435L72.5217 55.4828L72.6866 55.8733C72.6781 55.8818 72.6703 55.8911 72.6633 55.9009L71.9369 55.7371L71.9351 55.3685C71.9351 55.3685 71.9451 55.3628 71.9646 55.352C71.969 55.3496 71.9746 55.3465 71.9801 55.3435Z" fill="white"/>
<path id="Vector_74" d="M52.9157 55.9667L52.9295 56.2808L52.9471 56.6883C52.9471 56.6883 51.1335 56.794 50.7682 57.1924C50.7597 57.201 50.7519 57.2102 50.7448 57.2201L50.0184 57.056L50.0166 56.6867C50.0166 56.6867 50.0266 56.6809 50.0461 56.6701C50.0506 56.6677 50.0561 56.6647 50.0617 56.6616C50.9506 56.2125 51.9259 55.975 52.9157 55.9667Z" fill="#F7E5B7"/>
<path id="Vector_75" opacity="0.1" d="M52.9155 55.9667L52.9293 56.2808C52.1251 56.3065 50.6031 56.8012 50.6031 56.8012L50.0459 56.6701C50.9387 56.215 51.9197 55.9746 52.9155 55.9667Z" fill="black"/>
<path id="Vector_76" opacity="0.1" d="M50.0617 56.6619L50.6033 56.8011L50.7682 57.1916C50.7597 57.2002 50.7519 57.2094 50.7448 57.2192L50.0184 57.0555L50.0166 56.6869C50.0166 56.6869 50.0266 56.6811 50.0461 56.6703C50.0506 56.668 50.0561 56.6649 50.0617 56.6619Z" fill="white"/>
<path id="Vector_77" d="M85.7567 45.2382C85.6019 45.0787 85.4205 44.9494 85.2212 44.8565V40.9157C85.2212 40.8695 85.2034 40.8252 85.1718 40.7925C85.1401 40.7598 85.0972 40.7415 85.0524 40.7415H84.1069C84.0621 40.7415 84.0192 40.7598 83.9875 40.7925C83.9559 40.8252 83.9381 40.8695 83.9381 40.9157V44.7809C83.5963 44.8979 83.2989 45.1229 83.0881 45.4242C82.8773 45.7254 82.7638 46.0875 82.7637 46.459V54.9126C82.7637 55.0144 82.7831 55.1151 82.8208 55.2091C82.8585 55.3031 82.9138 55.3885 82.9836 55.4604C83.0533 55.5323 83.136 55.5894 83.2271 55.6283C83.3182 55.6673 83.4158 55.6873 83.5144 55.6873H85.5396C85.7378 55.6873 85.9279 55.6061 86.068 55.4615C86.2082 55.3168 86.2869 55.1207 86.2869 54.9162V46.5587C86.2872 46.3134 86.2405 46.0704 86.1495 45.8438C86.0585 45.6172 85.925 45.4114 85.7567 45.2382Z" fill="#7E7E7E"/>
<path id="Vector_78" d="M86.2869 47.6982H82.7637V52.5007H86.2869V47.6982Z" fill="#F7E5B7"/>
<path id="Vector_79" d="M85.2982 41.0107H85.2221V40.9157C85.2221 40.8695 85.2043 40.8252 85.1726 40.7925C85.1409 40.7598 85.098 40.7415 85.0532 40.7415H84.1078C84.063 40.7415 84.02 40.7598 83.9884 40.7925C83.9567 40.8252 83.9389 40.8695 83.9389 40.9157V41.0107H83.8628V41.4147H83.9389V43.4793H85.2221V41.4147H85.2982V41.0107Z" fill="#F7E5B7"/>
<path id="Vector_80" d="M57.5469 48.6591C57.4537 48.4538 57.3801 48.3085 57.3543 48.2585C55.7728 48.6613 54.7177 48.321 54.5513 48.2608C54.4699 48.4193 53.9619 49.4329 53.7566 50.4046C53.5711 51.2811 53.6788 51.8687 54.0766 52.1511L54.0884 52.1598L54.0909 52.1616C54.5301 52.4601 54.9489 52.7246 55.3359 52.9474C55.388 52.9774 55.4372 53.0052 55.4833 53.0309L55.4883 53.0337L55.4917 53.0382C55.5449 53.1073 55.5943 53.1792 55.6398 53.2538C55.7253 53.3772 55.7772 53.5219 55.7901 53.673V58.0264L55.7634 58.027C54.7547 58.0482 54.1302 58.2247 54.1302 58.376C54.1302 58.542 54.879 58.7269 55.9533 58.7269C57.0277 58.7269 57.7764 58.542 57.7764 58.376C57.7764 58.2269 57.1626 58.0514 56.1709 58.0278L56.1442 58.0271L56.1691 54.0002C56.1697 53.7276 56.2311 53.4587 56.3486 53.2145C56.3687 53.1735 56.3902 53.1335 56.4126 53.0959C56.4306 53.0657 56.4497 53.0361 56.4693 53.0082L56.4729 53.0031L56.4782 53.0001C56.5279 52.9721 56.5807 52.9417 56.6365 52.9091L56.643 52.9054C57.0092 52.692 57.4038 52.4418 57.8159 52.1615C58.1838 51.9112 58.3119 51.4053 58.1966 50.658C58.0868 49.9454 57.7827 49.1777 57.5469 48.6591Z" fill="#F7E5B7"/>
<path id="Vector_81" d="M57.6413 52.0702C57.2093 52.364 56.8526 52.5844 56.5798 52.7432H56.5795C56.1816 52.7151 55.782 52.7267 55.3862 52.7778C55.1065 52.6167 54.7293 52.3857 54.2652 52.0702C54.2608 52.0671 54.2564 52.0641 54.252 52.0608V52.0606C53.8263 51.7584 53.8158 51.1185 53.9542 50.4641C54.3065 50.4237 54.8682 50.4414 55.623 50.7196C56.5167 51.049 57.4522 50.8627 57.9943 50.6933C58.0834 51.2707 58.0291 51.8064 57.6413 52.0702Z" fill="#F7E5B7"/>
<path id="Vector_82" d="M55.0728 50.2257C55.1403 50.2257 55.1951 50.1694 55.1951 50.1C55.1951 50.0305 55.1403 49.9742 55.0728 49.9742C55.0052 49.9742 54.9504 50.0305 54.9504 50.1C54.9504 50.1694 55.0052 50.2257 55.0728 50.2257Z" fill="#F7E5B7"/>
<path id="Vector_83" d="M54.7305 51.3872C54.798 51.3872 54.8528 51.3309 54.8528 51.2615C54.8528 51.192 54.798 51.1357 54.7305 51.1357C54.6629 51.1357 54.6082 51.192 54.6082 51.2615C54.6082 51.3309 54.6629 51.3872 54.7305 51.3872Z" fill="white"/>
<path id="Vector_84" d="M55.3669 50.4797C55.4079 50.4797 55.4411 50.4458 55.4411 50.404C55.4411 50.3622 55.4079 50.3282 55.3669 50.3282C55.3259 50.3282 55.2927 50.3622 55.2927 50.404C55.2927 50.4458 55.3259 50.4797 55.3669 50.4797Z" fill="#F7E5B7"/>
<path id="Vector_85" d="M55.6611 51.9183C55.7021 51.9183 55.7353 51.8844 55.7353 51.8426C55.7353 51.8008 55.7021 51.7668 55.6611 51.7668C55.6201 51.7668 55.5869 51.8008 55.5869 51.8426C55.5869 51.8844 55.6201 51.9183 55.6611 51.9183Z" fill="white"/>
<path id="Vector_86" d="M55.1469 51.994C55.1879 51.994 55.2211 51.9601 55.2211 51.9183C55.2211 51.8764 55.1879 51.8425 55.1469 51.8425C55.106 51.8425 55.0728 51.8764 55.0728 51.9183C55.0728 51.9601 55.106 51.994 55.1469 51.994Z" fill="white"/>
<path id="Vector_87" d="M56.6389 49.4696C56.6798 49.4696 56.713 49.4357 56.713 49.3938C56.713 49.352 56.6798 49.3181 56.6389 49.3181C56.5979 49.3181 56.5647 49.352 56.5647 49.3938C56.5647 49.4357 56.5979 49.4696 56.6389 49.4696Z" fill="#F7E5B7"/>
<path id="Vector_88" d="M63.2844 44.5545C63.1912 44.3492 63.1176 44.2039 63.0918 44.1539C61.5104 44.5566 60.4552 44.2163 60.2888 44.1561C60.2074 44.3147 59.6994 45.3283 59.4941 46.3C59.3086 47.1765 59.4163 47.7641 59.8141 48.0465L59.8259 48.0552L59.8285 48.057C60.2676 48.3555 60.6865 48.6199 61.0734 48.8428C61.1255 48.8728 61.1747 48.9006 61.2209 48.9263L61.2258 48.929L61.2293 48.9336C61.2824 49.0026 61.3318 49.0746 61.3774 49.1492C61.4629 49.2726 61.5148 49.4173 61.5276 49.5684V53.9218L61.501 53.9224C60.4922 53.9436 59.8678 54.1201 59.8678 54.2714C59.8678 54.4373 60.6165 54.6223 61.6909 54.6223C62.7653 54.6223 63.514 54.4373 63.514 54.2714C63.514 54.1223 62.9001 53.9468 61.9085 53.9232L61.8817 53.9225L61.9067 49.8956C61.9073 49.623 61.9687 49.3541 62.0862 49.1099C62.1062 49.0689 62.1277 49.0289 62.1501 48.9913C62.1681 48.961 62.1872 48.9315 62.2068 48.9036L62.2104 48.8985L62.2158 48.8955C62.2655 48.8675 62.3182 48.8371 62.374 48.8045L62.3806 48.8008C62.7468 48.5874 63.1413 48.3372 63.5534 48.0569C63.9213 47.8066 64.0494 47.3007 63.9342 46.5534C63.8243 45.8408 63.5202 45.0731 63.2844 44.5545Z" fill="#F7E5B7"/>
<path id="Vector_89" d="M63.3796 47.9656C62.9475 48.2594 62.5908 48.4798 62.3181 48.6386H62.3178C61.9199 48.6105 61.5202 48.6221 61.1244 48.6731C60.8448 48.5121 60.4676 48.2811 60.0035 47.9656C59.9991 47.9625 59.9947 47.9595 59.9903 47.9562V47.956C59.5646 47.6538 59.554 47.0138 59.6925 46.3595C60.0448 46.3191 60.6065 46.3368 61.3613 46.615C62.2549 46.9444 63.1905 46.7581 63.7326 46.5887C63.8217 47.1661 63.7673 47.7017 63.3796 47.9656Z" fill="#F7E5B7"/>
<path id="Vector_90" d="M60.8103 46.1223C60.8779 46.1223 60.9326 46.066 60.9326 45.9966C60.9326 45.9271 60.8779 45.8708 60.8103 45.8708C60.7428 45.8708 60.688 45.9271 60.688 45.9966C60.688 46.066 60.7428 46.1223 60.8103 46.1223Z" fill="#F7E5B7"/>
<path id="Vector_91" d="M60.468 47.2832C60.5356 47.2832 60.5903 47.2269 60.5903 47.1575C60.5903 47.088 60.5356 47.0317 60.468 47.0317C60.4005 47.0317 60.3457 47.088 60.3457 47.1575C60.3457 47.2269 60.4005 47.2832 60.468 47.2832Z" fill="white"/>
<path id="Vector_92" d="M61.1054 46.3757C61.1464 46.3757 61.1796 46.3418 61.1796 46.3C61.1796 46.2582 61.1464 46.2242 61.1054 46.2242C61.0645 46.2242 61.0312 46.2582 61.0312 46.3C61.0312 46.3418 61.0645 46.3757 61.1054 46.3757Z" fill="#F7E5B7"/>
<path id="Vector_93" d="M61.3986 47.8143C61.4396 47.8143 61.4728 47.7804 61.4728 47.7386C61.4728 47.6968 61.4396 47.6628 61.3986 47.6628C61.3577 47.6628 61.3245 47.6968 61.3245 47.7386C61.3245 47.7804 61.3577 47.8143 61.3986 47.8143Z" fill="white"/>
<path id="Vector_94" d="M60.8852 47.89C60.9262 47.89 60.9594 47.8561 60.9594 47.8143C60.9594 47.7724 60.9262 47.7385 60.8852 47.7385C60.8442 47.7385 60.811 47.7724 60.811 47.8143C60.811 47.8561 60.8442 47.89 60.8852 47.89Z" fill="white"/>
<path id="Vector_95" d="M62.3774 45.3656C62.4184 45.3656 62.4516 45.3317 62.4516 45.2898C62.4516 45.248 62.4184 45.2141 62.3774 45.2141C62.3364 45.2141 62.3032 45.248 62.3032 45.2898C62.3032 45.3317 62.3364 45.3656 62.3774 45.3656Z" fill="#F7E5B7"/>
</g>
</g>
</g>
</g>
</g>
</svg>
