<svg width="113" height="88" viewBox="0 0 113 88" fill="none" xmlns="http://www.w3.org/2000/svg">
<g id="Frame 2270">
<g id="Group 734">
<path id="Vector" d="M68.8598 77.1147C68.1295 76.0679 67.1409 75.302 65.898 75.0153C64.8142 74.7653 63.6997 74.8079 62.5981 74.8166L48.6677 74.9266C47.4747 74.936 46.3308 75.994 46.3862 77.262C46.4412 78.5193 47.3889 79.6075 48.6677 79.5974C52.7484 79.5652 56.829 79.533 60.9096 79.5008C61.8716 79.4932 62.8342 79.4755 63.7962 79.4787C64.0123 79.4794 64.2274 79.4911 64.4433 79.4936C64.4956 79.4942 64.5333 79.4937 64.56 79.4926C64.5667 79.4946 64.5723 79.4965 64.581 79.499C64.6936 79.5306 64.8091 79.5524 64.9224 79.5825C64.8827 79.5837 64.9958 79.656 65.0526 79.6804C65.0604 79.6962 65.0771 79.7241 65.1049 79.7673C65.1436 79.8418 65.2585 80.0678 65.2632 80.0607C65.4357 80.5072 65.578 80.9653 65.6891 81.4317C65.9542 82.4603 66.0125 82.6754 66.0507 83.6404C66.0989 84.8595 67.0655 86.0339 68.3322 85.9759C69.5269 85.9211 70.6654 84.9479 70.6137 83.6404C70.5265 81.4372 70.1487 78.9623 68.8598 77.1147Z" fill="#F7E5B7"/>
<path id="Vector_2" d="M49.4871 82.3848C49.2254 80.7617 48.9688 79.1376 48.7021 77.5155C48.4314 75.8699 47.8787 74.3629 46.6276 73.2829C46.2933 72.9943 45.9467 72.7249 45.5987 72.4563C45.4763 72.3619 45.3541 72.2674 45.2332 72.1709C45.2259 72.1651 45.2213 72.1615 45.215 72.1565C45.2017 72.1448 45.1858 72.1309 45.1644 72.1123C44.6429 71.6606 44.1391 71.1887 43.6592 70.6872C43.233 70.2418 42.8254 69.7774 42.4365 69.294C42.3393 69.1733 42.2433 69.0514 42.1486 68.9286C42.1324 68.9074 42.0446 68.7913 41.9868 68.7156C41.9331 68.6398 41.8348 68.503 41.8183 68.4791C41.7077 68.3189 41.599 68.1573 41.4924 67.9942C40.7657 66.8797 40.1365 65.7018 39.612 64.4742C39.56 64.3524 39.5092 64.2299 39.4596 64.1068C39.4463 64.0692 39.4291 64.0209 39.4063 63.9566C39.3006 63.6591 39.1951 63.3619 39.0985 63.0609C38.8932 62.4214 38.7166 61.7726 38.5689 61.1143C38.4959 60.7892 38.4301 60.4625 38.3717 60.1341C38.3415 59.9653 38.3133 59.7961 38.2871 59.6265C38.2827 59.5984 38.2571 59.4154 38.242 59.312C38.2309 59.2082 38.2101 59.0243 38.2073 58.9959C38.1906 58.8249 38.1758 58.6538 38.1629 58.4826C38.1337 58.0972 38.114 57.7112 38.1037 57.3246C38.0861 56.6375 38.0982 55.9504 38.1397 55.2633C38.1634 54.8773 38.1971 54.4923 38.2386 54.108C38.2411 54.0844 38.2431 54.0656 38.2449 54.0487C38.2474 54.0315 38.2503 54.012 38.2538 53.9877C38.2845 53.7754 38.3168 53.5633 38.3529 53.3519C38.4898 52.5491 38.6678 51.7543 38.8861 50.9707C38.9895 50.6001 39.1018 50.2325 39.2231 49.8679C39.2771 49.706 39.3328 49.5448 39.3903 49.3842C39.3865 49.3945 39.5589 48.944 39.5612 48.9289C40.2449 47.2752 41.3632 45.7677 41.3647 43.8892C41.3658 42.6174 40.3146 41.3991 39.0832 41.4579C38.4693 41.4815 37.8883 41.7482 37.4627 42.2018C37.0371 42.6553 36.8001 43.2603 36.8017 43.8892C36.8017 43.9178 36.8016 43.9422 36.8015 43.9658C36.79 44.0054 36.7804 44.0384 36.7718 44.0677C36.6385 44.3643 36.4751 44.6461 36.3288 44.9353C35.928 45.727 35.5859 46.5446 35.261 47.3742C34.729 48.7251 34.3218 50.1241 34.0448 51.5529C33.4425 54.6832 33.3958 57.899 33.9068 61.0464C34.7914 66.5657 37.7085 71.849 41.7641 75.4004C42.1161 75.7086 42.4766 76.0064 42.8405 76.2982C42.9911 76.4189 43.143 76.5374 43.2956 76.6552C43.3677 76.7109 43.6666 76.9521 43.5351 76.8352C43.8178 77.0822 43.9368 77.2064 44.0094 77.3883C44.0199 77.4303 44.0343 77.4872 44.0537 77.5651C44.1049 77.7702 44.1535 77.9749 44.1938 78.1829C44.5469 80.0003 44.7922 81.8483 45.0871 83.6775C45.2898 84.9343 46.8013 85.7524 47.8936 85.3757C49.165 84.9372 49.7043 83.7315 49.4871 82.3848Z" fill="#F7E5B7"/>
<path id="Vector_3" d="M69.0896 87.0985C68.1315 87.1011 67.2114 86.7145 66.5314 86.0235C65.8513 85.3326 65.4667 84.3937 65.4621 83.4129V80.7489C62.7372 81.0611 53.4067 80.9888 50.7321 80.5489V83.3064C50.725 84.2864 50.3396 85.2238 49.6601 85.9142C48.9805 86.6046 48.0619 86.992 47.1045 86.992C46.1471 86.992 45.2285 86.6046 44.549 85.9142C43.8694 85.2238 43.4841 84.2864 43.4769 83.3064V77.8923C39.8544 75.8323 36.8345 72.8201 34.729 69.1666C32.6234 65.5131 31.5084 61.3506 31.499 57.1087C31.499 49.8353 34.7192 43.0503 40.334 38.4934C43.9846 35.5205 48.4201 33.7326 53.0708 33.3593C53.7021 33.3087 54.3372 33.283 54.9586 33.283C57.1477 33.283 67.0247 33.6292 69.5028 34.359L75.1535 28.6194C75.2366 28.5339 75.3427 28.4756 75.4582 28.4521C75.5738 28.4285 75.6936 28.4407 75.8023 28.4871C75.9119 28.5317 76.0058 28.6092 76.0715 28.7094C76.1373 28.8096 76.1719 28.9278 76.1709 29.0486V29.9611L77.2712 28.8457C77.3541 28.76 77.4601 28.7017 77.5755 28.6781C77.691 28.6545 77.8108 28.6667 77.9194 28.7131C78.0291 28.7577 78.1231 28.8352 78.1889 28.9355C78.2547 29.0357 78.2894 29.154 78.2884 29.2748V39.4725C81.1238 42.0891 83.2849 45.3813 84.5802 49.0573C85.8754 52.7333 86.2648 56.6796 85.7138 60.5465C85.1628 64.4134 83.6884 68.0814 81.4214 71.2256C79.1544 74.3697 76.1647 76.8928 72.7172 78.5714V83.4129C72.7125 84.3937 72.328 85.3326 71.6479 86.0235C70.9678 86.7145 70.0478 87.1011 69.0896 87.0985ZM65.7472 80.4178V83.4129C65.7544 84.3155 66.1097 85.1786 66.7358 85.8142C67.3618 86.4498 68.2079 86.8065 69.0896 86.8065C69.9714 86.8065 70.8174 86.4498 71.4435 85.8142C72.0695 85.1786 72.4248 84.3155 72.432 83.4129V78.387L72.5134 78.3474C76.3817 76.4685 79.6655 73.5289 82.0003 69.855C84.9755 65.1669 86.2128 59.5433 85.4884 54.0022C84.7639 48.4611 82.1254 43.3686 78.0506 39.6463L78.0032 39.6027V29.2748C78.0042 29.212 77.9864 29.1505 77.9522 29.0984C77.918 29.0463 77.869 29.0062 77.8119 28.9835C77.7551 28.9586 77.6922 28.9519 77.6316 28.9642C77.5711 28.9766 77.5155 29.0073 77.4723 29.0525L75.8857 30.6611V29.0486C75.8867 28.9858 75.8689 28.9242 75.8347 28.8722C75.8005 28.8201 75.7515 28.78 75.6943 28.7573C75.6374 28.7324 75.5745 28.7258 75.5138 28.7382C75.4531 28.7506 75.3975 28.7815 75.3542 28.8268L69.5825 34.6893L69.5005 34.663C67.1968 33.9249 57.1643 33.5749 54.9586 33.5749C54.3446 33.5749 53.7169 33.6003 53.0932 33.6504C48.499 34.0191 44.1174 35.7853 40.5112 38.7221C34.965 43.2233 31.7842 49.925 31.7842 57.1087C31.7937 61.3131 32.9027 65.4381 34.9961 69.0554C37.0895 72.6727 40.0909 75.6502 43.6885 77.6787L43.7621 77.7204V83.3064C43.7694 84.2088 44.1248 85.0718 44.7509 85.7073C45.3769 86.3428 46.2229 86.6994 47.1045 86.6994C47.9862 86.6994 48.8322 86.3428 49.4582 85.7073C50.0842 85.0718 50.4396 84.2088 50.4469 83.3064V80.1994L50.6159 80.2319C53.0194 80.6948 63.1402 80.7678 65.5861 80.4394L65.7472 80.4178Z" fill="#3F3D56"/>
<path id="Vector_4" d="M49.7582 17.3876L33.9673 22.2453C33.465 22.4004 33.0435 22.7532 32.7952 23.2263C32.547 23.6994 32.4923 24.254 32.6433 24.7683C32.7943 25.2826 33.1385 25.7145 33.6004 25.9692C34.0623 26.2238 34.6041 26.2804 35.1066 26.1264L48.9254 21.8745L49.2149 21.7855C49.2735 20.2585 49.6782 18.7663 50.397 17.427C50.3068 17.3854 50.2103 17.3598 50.1118 17.3511C49.9927 17.3393 49.8725 17.3517 49.7582 17.3876Z" fill="#F7E5B7"/>
<path id="Vector_5" d="M34.8347 27.162C34.6251 27.1615 34.421 27.0935 34.2511 26.9678C34.0813 26.842 33.9543 26.6648 33.8882 26.4612L32.9008 23.4111C32.8595 23.2837 32.8432 23.1493 32.8527 23.0155C32.8623 22.8816 32.8974 22.751 32.9563 22.6311C33.0151 22.5112 33.0964 22.4043 33.1956 22.3166C33.2948 22.2289 33.4099 22.162 33.5344 22.1198L46.3865 17.7598C46.5109 17.7176 46.6423 17.7009 46.773 17.7106C46.9037 17.7204 47.0313 17.7564 47.1484 17.8166C47.2656 17.8768 47.37 17.96 47.4557 18.0615C47.5414 18.163 47.6068 18.2808 47.648 18.4082L48.6354 21.4583C48.7176 21.7091 48.7011 21.9829 48.5895 22.2215C48.4779 22.4602 48.2799 22.645 48.0375 22.7368C48.0257 22.7414 48.0137 22.7457 48.0016 22.7497L35.1497 27.1095C35.0481 27.1442 34.9418 27.1619 34.8347 27.162Z" fill="#6318AF"/>
<path id="Vector_6" d="M58.9022 11.9703C56.3083 11.9713 53.8165 13.0055 51.9543 14.8539C50.0922 16.7024 49.0057 19.22 48.9249 21.8739C48.922 21.9776 48.9207 22.0827 48.9207 22.1878C48.9207 24.2086 49.5061 26.184 50.6028 27.8643C51.6996 29.5445 53.2585 30.8541 55.0824 31.6275C56.9063 32.4008 58.9133 32.6032 60.8495 32.2089C62.7858 31.8147 64.5643 30.8416 65.9603 29.4126C67.3562 27.9837 68.3069 26.1631 68.692 24.1811C69.0771 22.1991 68.8795 20.1447 68.124 18.2777C67.3685 16.4107 66.0892 14.8149 64.4477 13.6922C62.8062 12.5695 60.8764 11.9703 58.9022 11.9703ZM58.9022 32.1133C56.3314 32.1106 53.8666 31.064 52.0488 29.2032C50.231 27.3424 49.2085 24.8193 49.2058 22.1878C49.2058 22.052 49.2087 21.9177 49.2144 21.7849C49.2916 19.8406 49.9255 17.9625 51.0371 16.384C52.1487 14.8055 53.6891 13.5963 55.4667 12.9068C57.2443 12.2173 59.1807 12.0778 61.0351 12.5058C62.8895 12.9338 64.5801 13.9103 65.8966 15.3139C67.2132 16.7176 68.0977 18.4864 68.44 20.4004C68.7824 22.3145 68.5676 24.2893 67.8223 26.0794C67.077 27.8695 65.8341 29.3958 64.2482 30.4686C62.6622 31.5414 60.8032 32.1134 58.9022 32.1133Z" fill="#3F3D56"/>
<path id="Vector_7" d="M67.3156 22.1882C67.3156 24.4722 66.4292 26.6627 64.8515 28.2777C63.2737 29.8927 61.1338 30.8001 58.9025 30.8001C56.6713 30.8001 54.5314 29.8927 52.9536 28.2777C51.3759 26.6627 50.4895 24.4722 50.4895 22.1882C50.4895 21.9152 50.5023 21.6466 50.5265 21.381C50.7293 19.1767 51.7536 17.137 53.3868 15.6854C55.0201 14.2339 57.1367 13.4819 59.2973 13.5858C61.4578 13.6897 63.4963 14.6414 64.9894 16.2432C66.4825 17.8451 67.3156 19.9741 67.3156 22.1882Z" fill="#6318AF"/>
<path id="Vector_8" d="M61.4083 22.7595C61.2043 22.4851 60.9361 22.2677 60.6283 22.1275C60.2487 21.9638 59.8567 21.8319 59.4562 21.7334V19.3892C60.0718 19.4843 60.6493 19.7537 61.1231 20.1672L61.588 19.1528C61.3206 18.909 61.0137 18.7148 60.681 18.5791C60.3123 18.4263 59.9253 18.3247 59.5303 18.277V17.0888H58.4538V18.2887C58.038 18.3365 57.637 18.4743 57.2774 18.693C56.9525 18.8898 56.679 19.1643 56.4802 19.4929C56.2906 19.8135 56.1923 20.1821 56.1965 20.5569C56.178 20.9631 56.2929 21.364 56.523 21.6955C56.7348 21.9825 57.0145 22.2095 57.3358 22.3552C57.7214 22.5238 58.1202 22.6591 58.5279 22.7595V25.0059C57.8014 24.9498 57.1091 24.6671 56.5444 24.1958L56.0796 25.2117C56.3953 25.479 56.7544 25.6874 57.1405 25.8277C57.5635 25.9827 58.0055 26.077 58.4538 26.108V27.2859H59.5303V26.0861C60.1283 26.0192 60.6891 25.756 61.1288 25.3358C61.3224 25.1457 61.4754 24.9165 61.578 24.6627C61.6806 24.409 61.7306 24.1362 61.7249 23.8616C61.7427 23.4683 61.6313 23.0803 61.4083 22.7595ZM58.5279 21.4853C58.2657 21.4039 58.0218 21.2699 57.8106 21.0912C57.727 21.015 57.6608 20.9207 57.6169 20.8152C57.573 20.7097 57.5525 20.5956 57.5568 20.481C57.5491 20.2211 57.6424 19.9686 57.8163 19.779C58.0092 19.58 58.258 19.4478 58.5279 19.4009V21.4853ZM60.1321 24.5914C59.9502 24.7824 59.7133 24.9087 59.4562 24.9519V23.0194C59.702 23.0869 59.9319 23.2045 60.1321 23.3653C60.208 23.4317 60.2683 23.5147 60.3085 23.6082C60.3488 23.7017 60.3679 23.8033 60.3645 23.9054C60.3744 24.1559 60.2914 24.4009 60.1321 24.5914Z" fill="#F7E5B7"/>
<path id="Vector_9" d="M35.2931 39.5238C35.0727 39.5234 34.8586 39.4486 34.6839 39.311C34.5092 39.1733 34.3838 38.9805 34.3271 38.7625L33.7895 36.6796C33.7222 36.4178 33.7591 36.1393 33.8921 35.9053C34.0251 35.6713 34.2433 35.5009 34.4989 35.4314L51.4591 30.8438C51.715 30.7754 51.987 30.8136 52.2155 30.95C52.444 31.0863 52.6105 31.3098 52.6784 31.5715L53.1338 33.3362L53.0485 33.3429C48.6988 33.6891 44.5369 35.3035 41.0553 37.995L41.0306 38.0072L35.5464 39.4902C35.4637 39.5125 35.3786 39.5238 35.2931 39.5238Z" fill="#6318AF"/>
<path id="Vector_10" d="M32.4836 49.8117C30.4941 49.5108 28.5913 48.7744 26.905 47.6526C26.0696 47.0972 25.2962 46.4497 24.5987 45.7217C23.9103 45.003 23.2517 44.186 22.9107 43.2288C22.5826 42.3432 22.5995 41.3624 22.9579 40.4891C23.3114 39.6213 23.9867 38.9323 24.8357 38.5733C25.6898 38.2246 26.7217 38.1873 27.5529 38.5692C27.949 38.7469 28.2917 39.0293 28.546 39.3874C28.6641 39.5525 28.7516 39.7385 28.8041 39.936C28.8528 40.115 28.8572 40.3035 28.817 40.4847C28.7682 40.6655 28.6823 40.8336 28.5649 40.9777C28.4475 41.1218 28.3013 41.2385 28.1363 41.32C27.773 41.5108 27.3793 41.6337 26.9738 41.6829C26.566 41.7399 25.9801 41.7917 25.6523 41.4565C25.5848 41.3902 25.5317 41.3101 25.4965 41.2214C25.4718 41.1535 25.4634 41.0805 25.4719 41.0086C25.4671 41.0403 25.4917 40.9396 25.4903 40.9437C25.4851 40.9585 25.4626 40.9948 25.4945 40.9391C25.5045 40.9207 25.5156 40.903 25.5278 40.8861C25.5169 40.9004 25.4931 40.9244 25.5356 40.8833C25.5708 40.844 25.6159 40.8154 25.666 40.8009C25.6858 40.795 25.7058 40.7904 25.7256 40.7848C25.7759 40.7708 25.6754 40.7856 25.7269 40.7839C25.7467 40.7833 25.7668 40.7838 25.7866 40.7828C25.8371 40.7805 25.7368 40.7687 25.7852 40.7812C25.804 40.786 25.8226 40.7908 25.8411 40.7967C25.8813 40.8097 25.8126 40.7665 25.8399 40.7988C25.8718 40.8367 25.8063 40.762 25.8427 40.7987C25.8607 40.8168 25.8777 40.836 25.8937 40.8562C25.9566 40.9198 26.0415 40.9555 26.13 40.9555C26.2185 40.9555 26.3034 40.9198 26.3664 40.8562C26.4272 40.7911 26.4611 40.7044 26.4611 40.6143C26.4611 40.5242 26.4272 40.4375 26.3664 40.3723C26.0368 39.9541 25.3857 40.0574 25.0523 40.4109C24.6271 40.8617 24.7955 41.5762 25.2091 41.9695C25.6773 42.4148 26.3405 42.4458 26.9428 42.3711C27.4518 42.3212 27.9479 42.1777 28.4071 41.9475C28.8634 41.718 29.2203 41.3233 29.4087 40.8399C29.4937 40.5819 29.5243 40.3084 29.4983 40.0374C29.4724 39.7664 29.3905 39.5042 29.2581 39.268C28.7263 38.2447 27.6252 37.72 26.5368 37.6291C25.9764 37.5842 25.4129 37.6534 24.8788 37.8329C24.3448 38.0124 23.8508 38.2984 23.4255 38.6746C22.6058 39.4301 22.101 40.4791 22.0155 41.6048C21.9205 42.772 22.3629 43.9054 23.0079 44.8473C23.6831 45.8044 24.4888 46.6573 25.4005 47.3803C27.1829 48.8369 29.2735 49.8462 31.5052 50.3274C31.7707 50.3835 32.0376 50.4316 32.3059 50.4716C32.3912 50.4927 32.4813 50.4798 32.5577 50.4354C32.6341 50.391 32.691 50.3185 32.717 50.2326C32.7399 50.1451 32.7283 50.0519 32.6846 49.9732C32.6409 49.8944 32.5687 49.8364 32.4836 49.8117Z" fill="#3F3D56"/>
<path id="Vector_11" d="M64.3373 34.9418C61.4224 34.8997 58.5167 34.9754 55.6201 35.169C54.6301 35.2351 53.7734 35.5933 53.7734 36.1954C53.7734 36.6988 54.6232 37.2885 55.6201 37.2218C58.5152 37.0283 61.4209 36.9526 64.3373 36.9946C66.7149 37.029 66.7135 34.9761 64.3373 34.9418Z" fill="#F7E5B7"/>
<path id="Vector_12" d="M60.0281 36.8926C59.7131 36.8926 52.313 36.8806 52.313 35.8342C52.313 34.7879 59.7131 34.7759 60.0281 34.7759C60.3432 34.7759 67.7433 34.788 67.7433 35.8342C67.7433 36.8806 60.3432 36.8926 60.0281 36.8926ZM52.6024 35.8342C52.8049 36.1514 55.525 36.6007 60.0281 36.6007C64.5313 36.6007 67.2514 36.1515 67.4539 35.8342C67.2514 35.5171 64.5313 35.0678 60.0281 35.0678C55.525 35.0678 52.8049 35.5171 52.6024 35.8342Z" fill="#3F3D56"/>
<path id="Vector_13" d="M80.7922 48.1306H75.4546V49.1451H80.7922V48.1306Z" fill="#3F3D56"/>
<path id="Vector_14" d="M37.7084 44.1892C37.4708 44.1884 37.2413 44.101 37.0609 43.9428C36.8805 43.7845 36.761 43.5657 36.7239 43.3254L36.3981 41.1971C36.3574 40.9294 36.4221 40.6561 36.578 40.4372C36.734 40.2183 36.9683 40.0716 37.2297 40.0294L54.5594 37.2499C54.8209 37.2083 55.0878 37.2745 55.3017 37.4341C55.5155 37.5937 55.6588 37.8336 55.7 38.1012L56.0258 40.2296C56.0665 40.4973 56.0018 40.7706 55.8459 40.9895C55.69 41.2084 55.4556 41.355 55.1942 41.3972L37.8646 44.1767C37.8129 44.185 37.7607 44.1891 37.7084 44.1892Z" fill="#6318AF"/>
<path id="Vector_15" d="M30.5355 19.246C34.5518 19.246 37.8078 15.9131 37.8078 11.8018C37.8078 7.69053 34.5518 4.35767 30.5355 4.35767C26.5191 4.35767 23.2632 7.69053 23.2632 11.8018C23.2632 15.9131 26.5191 19.246 30.5355 19.246Z" fill="#F7E5B7"/>
<path id="Vector_16" d="M34.653 13.7283C34.8854 13.6451 35.0977 13.5119 35.2757 13.3377C35.3934 13.2135 35.4832 13.0644 35.5387 12.9009C35.5943 12.7375 35.6142 12.5636 35.5972 12.3914C35.5873 12.2687 35.5498 12.1499 35.4877 12.0445C35.4255 11.9391 35.3404 11.8498 35.239 11.7836C34.9758 11.6179 34.628 11.6242 34.2769 11.7908L34.2364 8.88493L33.9512 8.88909L33.9989 12.3052L34.2159 12.1595C34.4677 11.9907 34.8294 11.8684 35.0896 12.0322C35.1539 12.0756 35.2076 12.1336 35.2465 12.2017C35.2854 12.2698 35.3085 12.3461 35.3139 12.4248C35.3258 12.5531 35.3107 12.6825 35.2695 12.8043C35.2282 12.926 35.1618 13.0372 35.0748 13.1304C34.7657 13.4443 34.3081 13.5496 33.7859 13.6458L33.8364 13.9331C34.114 13.8899 34.3873 13.8214 34.653 13.7283Z" fill="#2F2E41"/>
<path id="Vector_17" d="M37.1738 8.68104L35.6553 8.91644L35.6978 9.20398L37.2163 8.96858L37.1738 8.68104Z" fill="#2F2E41"/>
<path id="Vector_18" d="M32.3796 9.42397L30.8611 9.65938L30.9036 9.94692L32.4221 9.71151L32.3796 9.42397Z" fill="#2F2E41"/>
<path id="Vector_19" d="M35.3414 44.0592C35.0798 44.0586 34.8247 43.9765 34.6098 43.8239C34.395 43.6712 34.2306 43.4552 34.1387 43.2046L29.1246 29.4593C28.5118 27.7735 28.5772 25.9077 29.3066 24.2713C30.036 22.6348 31.3697 21.3614 33.0152 20.7303L37.0922 19.172C37.2498 19.1113 37.4176 19.0831 37.586 19.0891C37.7543 19.0951 37.9198 19.1351 38.073 19.2068C38.2257 19.2767 38.3634 19.377 38.4779 19.502C38.5923 19.6269 38.6813 19.774 38.7396 19.9346L48.0277 37.8858C48.088 38.0477 48.1164 38.2201 48.1114 38.3933C48.1063 38.5665 48.0678 38.7369 47.9982 38.8948C47.9285 39.0527 47.829 39.1949 47.7054 39.3133C47.5819 39.4317 47.4367 39.5238 47.2781 39.5845L35.7899 43.9757C35.6465 44.0308 35.4945 44.0591 35.3414 44.0592Z" fill="#6318AF"/>
<path id="Vector_20" d="M35.8564 19.6444L45.0721 32.2595L38.8363 19.7768C38.7848 19.6312 38.7058 19.4974 38.6037 19.383C38.5017 19.2686 38.3786 19.1759 38.2416 19.1102C38.1045 19.0446 37.9562 19.0071 37.805 19.0001C37.6539 18.9932 37.5028 19.0167 37.3606 19.0695L35.8564 19.6444Z" fill="#F7E5B7"/>
<path id="Vector_21" d="M50.4474 29.2252L33.9928 28.1402C33.7334 28.1231 33.4799 28.0539 33.2467 27.9365C33.0134 27.8191 32.8051 27.6558 32.6335 27.456C32.4619 27.2562 32.3304 27.0237 32.2466 26.7719C32.1628 26.52 32.1283 26.2538 32.145 25.9883C32.1617 25.7228 32.2293 25.4633 32.344 25.2245C32.4587 24.9858 32.6182 24.7725 32.8134 24.5968C33.0086 24.4212 33.2357 24.2866 33.4817 24.2008C33.7277 24.115 33.9878 24.0797 34.2472 24.0968L50.7019 25.1817C50.8233 25.1897 50.9421 25.2221 51.0513 25.2771C51.1605 25.332 51.2581 25.4085 51.3385 25.5021C51.4188 25.5956 51.4804 25.7045 51.5196 25.8225C51.5589 25.9404 51.5751 26.0651 51.5672 26.1894L51.432 28.3394C51.4162 28.5905 51.3036 28.8248 51.1189 28.991C50.9343 29.1571 50.6928 29.2413 50.4474 29.2252Z" fill="#F7E5B7"/>
<path id="Vector_22" d="M46.0508 29.9195C46.0291 29.9195 46.0073 29.9188 45.9855 29.9174L32.4738 29.0265C32.343 29.0179 32.2151 28.983 32.0975 28.9238C31.9799 28.8646 31.8748 28.7822 31.7882 28.6815C31.7017 28.5807 31.6354 28.4634 31.5931 28.3364C31.5508 28.2094 31.5334 28.0751 31.5419 27.9412L31.7729 24.269C31.7813 24.1351 31.8155 24.0042 31.8733 23.8838C31.9312 23.7634 32.0116 23.6559 32.1101 23.5673C32.2085 23.4787 32.3231 23.4108 32.4472 23.3676C32.5712 23.3243 32.7024 23.3065 32.8332 23.3151L46.3449 24.206C46.6089 24.2237 46.8553 24.3479 47.03 24.5513C47.2047 24.7548 47.2935 25.0209 47.2768 25.2912L47.0458 28.9635C47.033 29.1602 46.9651 29.3491 46.8501 29.5073C46.7351 29.6655 46.578 29.7864 46.3975 29.8554C46.2866 29.8979 46.1692 29.9196 46.0508 29.9195Z" fill="#6318AF"/>
<path id="Vector_23" d="M30.4531 6.85199C31.4098 6.00973 32.7235 6.76319 33.8207 6.63129C34.8703 6.5051 35.6991 5.5413 35.9109 4.51739C36.1579 3.32282 35.5522 2.12603 34.6594 1.38124C33.6816 0.565504 32.3847 0.331327 31.1558 0.482244C29.7473 0.655211 28.4592 1.32728 27.3033 2.14018C26.1877 2.90053 25.1617 3.79046 24.2459 4.79223C23.4258 5.71934 22.731 6.82444 22.5091 8.07201C22.3075 9.20578 22.4615 10.4622 23.1162 11.4226C23.4634 11.9149 23.9287 12.3073 24.4672 12.5619C25.0286 12.8441 25.6275 13.0459 26.1715 13.365C26.9939 13.8474 27.7933 14.8478 27.5357 15.8888C27.4804 16.1162 27.3714 16.3263 27.2182 16.5004C27.0342 16.7095 26.7022 16.4332 26.8868 16.2235C27.2109 15.8552 27.1981 15.3641 27.0254 14.9244C26.82 14.4289 26.4563 14.0196 25.9939 13.7634C25.4245 13.4301 24.7959 13.2244 24.2124 12.9209C23.6538 12.6436 23.1689 12.2323 22.799 11.722C22.1006 10.7284 21.8917 9.43534 22.0501 8.23914C22.2215 6.94467 22.8712 5.76838 23.6857 4.78265C24.5721 3.70989 25.6609 2.80184 26.7732 1.98607C27.9667 1.11075 29.2853 0.370719 30.7445 0.103064C32.0093 -0.128952 33.3803 0.0138914 34.4863 0.71946C35.5187 1.37806 36.3104 2.51099 36.3892 3.77693C36.4174 4.35292 36.2953 4.92623 36.0352 5.43784C35.7751 5.94945 35.3866 6.38088 34.9096 6.68775C34.4201 6.98759 33.851 7.12254 33.2826 7.07358C32.6749 7.03376 32.0666 6.84328 31.4551 6.89617C31.1783 6.91336 30.9146 7.02243 30.7039 7.20685C30.4949 7.39087 30.2457 7.0345 30.4531 6.85199Z" fill="#2F2E41"/>
</g>
</g>
</svg>
