<svg width="112" height="87" viewBox="0 0 112 87" fill="none" xmlns="http://www.w3.org/2000/svg">
<g id="Group 739">
<path id="Vector" d="M92.3555 86.7589C103.205 86.7589 112 86.0893 112 85.2632C112 84.4372 103.205 83.7676 92.3555 83.7676C81.5061 83.7676 72.7109 84.4372 72.7109 85.2632C72.7109 86.0893 81.5061 86.7589 92.3555 86.7589Z" fill="#F7E5B7"/>
<path id="Vector_2" d="M20.9873 25.7077C20.9936 24.1854 19.7113 22.9402 18.2061 22.9402H4.23865C2.75722 22.9402 1.47728 24.1648 1.45994 25.6629C1.45456 26.0887 1.54704 26.5099 1.73009 26.8934C1.91313 27.2769 2.18174 27.6121 2.51474 27.8727C2.6001 27.937 2.66727 28.0229 2.70954 28.1217C2.75182 28.2205 2.76771 28.3288 2.75563 28.4358C2.73943 28.5572 2.7313 28.6795 2.73131 28.802V38.5729C2.73131 38.9325 2.80136 39.2887 2.93745 39.621C3.07353 39.9532 3.273 40.2551 3.52446 40.5095C3.77592 40.7638 4.07445 40.9655 4.40299 41.1031C4.73154 41.2408 5.08368 41.3116 5.43929 41.3116H16.917C17.6352 41.3116 18.324 41.0231 18.8318 40.5095C19.3397 39.9959 19.625 39.2993 19.625 38.5729V28.802C19.625 28.6948 19.6188 28.5877 19.6065 28.4813C19.5956 28.3759 19.6127 28.2694 19.6562 28.173C19.6996 28.0765 19.7678 27.9936 19.8536 27.9328C20.2031 27.679 20.4881 27.345 20.6852 26.9582C20.8822 26.5714 20.9858 26.1428 20.9873 25.7077Z" fill="#3F3D56"/>
<path id="Vector_3" d="M20.3819 25.4398C20.3122 24.9098 20.0533 24.4238 19.654 24.0734C19.2547 23.723 18.7425 23.5324 18.2138 23.5374H4.23387C3.73967 23.5329 3.25873 23.6991 2.8705 24.0084C2.48227 24.3177 2.20996 24.7516 2.09854 25.2386C2.00315 25.6861 2.05069 26.1528 2.23432 26.5712C2.41795 26.9897 2.72819 27.3384 3.12034 27.5672C3.23355 27.6327 3.32202 27.7343 3.37184 27.8562C3.42166 27.9781 3.43 28.1133 3.39555 28.2405C3.34594 28.4237 3.32089 28.6127 3.32107 28.8027V38.5726C3.32113 39.0719 3.49359 39.5555 3.80866 39.9399C4.12374 40.3243 4.56164 40.5853 5.04676 40.6779C5.17616 40.7024 5.3075 40.7147 5.43913 40.7147H16.9168C17.1106 40.715 17.3035 40.6881 17.4899 40.6348C17.9343 40.5083 18.3256 40.2385 18.6043 39.8664C18.883 39.4943 19.0339 39.0403 19.034 38.5735V28.8017C19.034 28.6239 19.012 28.4468 18.9686 28.2745C18.9567 28.2267 18.9506 28.1777 18.9504 28.1284C18.9505 28.0204 18.9796 27.9145 19.0347 27.8219C19.0897 27.7294 19.1686 27.6537 19.2629 27.603L19.2638 27.6021C19.6441 27.3979 19.9545 27.082 20.1541 26.6961C20.3536 26.3102 20.433 25.8722 20.3819 25.4398Z" fill="#F7E5B7"/>
<path id="Vector_4" opacity="0.2" d="M19.0354 29.738V28.8195H17.4914V23.5377H16.5831V28.8195H11.7239V23.5377H10.8157V28.8195H5.95647V23.5377H5.04821V28.8195H3.32251V29.738H5.04821V32.4938H3.32251V33.4123H5.04821V36.1681H3.32251V37.0866H5.04821V40.6782C5.1776 40.7026 5.30895 40.7149 5.44057 40.715H5.95647V37.0866H10.8157V40.715H11.7239V37.0866H16.5831V40.715H16.9183C17.112 40.7153 17.3049 40.6884 17.4914 40.6351V37.0866H19.0354V36.168H17.4914V33.4123H19.0354V32.4938H17.4914V29.738H19.0354ZM5.95647 29.738H10.8157V32.4938H5.95647V29.738ZM5.95647 36.168V33.4123H10.8157V36.168H5.95647ZM16.5831 36.168H11.7239V33.4123H16.5831V36.168ZM16.5831 32.4938H11.7239V29.738H16.5831V32.4938Z" fill="black"/>
<path id="Vector_5" d="M19.2654 0.142587C19.5955 1.38699 19.6801 2.6848 19.5142 3.96191C19.3483 5.23902 18.9353 6.47043 18.2987 7.58582C17.6621 8.70121 16.8143 9.67874 15.8039 10.4626C14.7935 11.2465 13.6401 11.8213 12.4097 12.1543C11.1792 12.4873 9.8958 12.5719 8.63269 12.4034C7.36958 12.2348 6.15151 11.8163 5.04802 11.1719C3.94453 10.5274 2.97724 9.66957 2.20137 8.64732C1.4255 7.62508 0.856254 6.45845 0.526123 5.21404L19.2654 0.142587Z" fill="#F7E5B7"/>
<path id="Vector_6" d="M4.41017 5.96619C4.47589 6.21393 4.44229 6.43827 4.33512 6.46727C4.22795 6.49628 4.0878 6.31896 4.02208 6.07122C3.98938 5.9004 4.01588 5.72344 4.09712 5.57014C4.24336 5.66187 4.35392 5.80174 4.41017 5.96619Z" fill="#3F3D56"/>
<path id="Vector_7" d="M14.6399 4.87978C14.7056 5.12752 14.672 5.35186 14.5649 5.38086C14.4577 5.40987 14.3175 5.23255 14.2518 4.98481C14.2191 4.81399 14.2456 4.63703 14.3269 4.48372C14.4731 4.57546 14.5837 4.71533 14.6399 4.87978Z" fill="#3F3D56"/>
<path id="Vector_8" d="M7.19484 5.93345C7.26056 6.18119 7.22696 6.40553 7.1198 6.43454C7.01263 6.46354 6.87247 6.28622 6.80675 6.03848C6.77405 5.86766 6.80056 5.6907 6.88179 5.5374C7.02804 5.62914 7.13859 5.76901 7.19484 5.93345Z" fill="#3F3D56"/>
<path id="Vector_9" d="M12.0127 8.41534C12.0784 8.66307 12.0448 8.88742 11.9377 8.91642C11.8305 8.94542 11.6903 8.7681 11.6246 8.52037C11.5919 8.34954 11.6184 8.17259 11.6997 8.01929C11.8459 8.11102 11.9565 8.25089 12.0127 8.41534Z" fill="#3F3D56"/>
<path id="Vector_10" d="M7.73561 9.09256C7.80133 9.3403 7.76773 9.56464 7.66057 9.59364C7.5534 9.62265 7.41324 9.44533 7.34752 9.19759C7.31482 9.02677 7.34133 8.84981 7.42256 8.69651C7.56881 8.78825 7.67936 8.92811 7.73561 9.09256Z" fill="#3F3D56"/>
<path id="Vector_11" d="M13.6152 2.26099C13.681 2.50872 13.6474 2.73307 13.5402 2.76207C13.433 2.79108 13.2929 2.61376 13.2272 2.36602C13.1945 2.19519 13.221 2.01824 13.3022 1.86494C13.4484 1.95667 13.559 2.09654 13.6152 2.26099Z" fill="#3F3D56"/>
<path id="Vector_12" d="M14.2473 8.77253C14.313 9.02027 14.2794 9.24461 14.1723 9.27361C14.0651 9.30262 13.925 9.1253 13.8592 8.87756C13.8265 8.70674 13.853 8.52978 13.9343 8.37648C14.0805 8.46822 14.1911 8.60808 14.2473 8.77253Z" fill="#3F3D56"/>
<path id="Vector_13" d="M12.5515 12.6869C9.92699 13.394 7.13154 13.0193 4.77849 11.6451C2.42543 10.2708 0.706933 8.00927 0 5.35654L1.05338 5.07146C1.36496 6.24591 1.90221 7.34696 2.63446 8.31174C3.36672 9.27653 4.27964 10.0862 5.32109 10.6944C6.36255 11.3026 7.51215 11.6976 8.70426 11.8566C9.89637 12.0157 11.1076 11.9359 12.2689 11.6216C13.4302 11.3073 14.5187 10.7648 15.4723 10.025C16.426 9.28518 17.2261 8.3626 17.8269 7.30991C18.4277 6.25722 18.8175 5.09503 18.9741 3.88971C19.1306 2.68439 19.0508 1.45953 18.7392 0.285081L19.7926 1.56335e-06C20.4936 2.65434 20.1249 5.48077 18.7674 7.85921C17.4099 10.2376 15.1745 11.9739 12.5515 12.6869Z" fill="#3F3D56"/>
<path id="Vector_14" d="M32.1151 6.0588H28.9043V9.30603H32.1151V6.0588Z" fill="#3F3D56"/>
<path id="Vector_15" d="M63.5807 7.5205H37.7339V7.84401H63.5807V7.5205Z" fill="#3F3D56"/>
<path id="Vector_16" d="M32.1151 30.5025H28.9043V33.7497H32.1151V30.5025Z" fill="#3F3D56"/>
<path id="Vector_17" d="M63.5807 31.9636H37.7339V32.2872H63.5807V31.9636Z" fill="#3F3D56"/>
<path id="Vector_18" d="M32.1151 54.7752H28.9043V58.0225H32.1151V54.7752Z" fill="#3F3D56"/>
<path id="Vector_19" d="M63.5807 56.237H37.7339V56.5605H63.5807V56.237Z" fill="#3F3D56"/>
<path id="Vector_20" d="M90.3064 24.8013L86.2049 28.0708L77.5141 24.9817C77.5141 24.9817 74.5591 21.6203 72.8882 24.1239C72.3159 24.9814 76.0642 26.5655 76.4178 26.7127C77.3019 27.0807 85.7706 31.7795 86.6004 31.1631C87.4303 30.5466 92.0995 27.4287 92.0995 27.4287L90.3064 24.8013Z" fill="#F7E5B7"/>
<path id="Vector_21" d="M104.307 19.2239C100.42 17.7548 96.7224 17.0598 93.7244 19.2239V12.2395C93.7244 11.5368 93.8612 10.8409 94.1272 10.1916C94.3931 9.5423 94.7829 8.95234 95.2742 8.4554C95.7656 7.95846 96.3489 7.56426 96.9909 7.29532C97.6329 7.02638 98.321 6.88795 99.0159 6.88795C99.7108 6.88795 100.399 7.02638 101.041 7.29532C101.683 7.56426 102.266 7.95846 102.758 8.4554C103.249 8.95234 103.639 9.5423 103.905 10.1916C104.171 10.8409 104.307 11.5368 104.307 12.2396L104.307 19.2239Z" fill="#2F2E41"/>
<path id="Vector_22" d="M94.5387 34.4803L94.221 36.729C94.221 36.729 93.4269 39.1384 94.221 43.6358L81.436 78.8925L90.8858 81.6231L95.571 62.3484L102.162 47.6514L101.527 64.3561L98.1915 82.1853L108.038 81.7837L110.908 51.2121C111.372 46.3806 110.543 41.5117 108.508 37.1151C107.712 35.4054 106.857 34.058 106.08 33.8624C103.75 33.2756 94.5387 34.4803 94.5387 34.4803Z" fill="#2F2E41"/>
<path id="Vector_23" d="M82.6272 78.6519L79.3714 82.1856C79.3714 82.1856 73.098 85.4783 77.5449 85.8799C81.9919 86.2815 83.5007 84.5146 83.5007 84.5146C83.5007 84.5146 89.0594 84.113 88.98 83.3099C88.9006 82.5068 88.5035 79.8565 88.5035 79.8565L82.6272 78.6519Z" fill="#2F2E41"/>
<path id="Vector_24" d="M100.296 79.5044V81.9941C100.296 81.9941 100.376 83.0381 100.296 83.279C100.217 83.52 99.0259 86.4915 102.996 85.849C106.967 85.2065 105.379 82.7169 105.379 82.7169L104.426 79.1029L100.296 79.5044Z" fill="#2F2E41"/>
<path id="Vector_25" d="M98.9669 17.134C101.171 17.134 102.957 15.3272 102.957 13.0983C102.957 10.8695 101.171 9.0627 98.9669 9.0627C96.7631 9.0627 94.9766 10.8695 94.9766 13.0983C94.9766 15.3272 96.7631 17.134 98.9669 17.134Z" fill="#F7E5B7"/>
<path id="Vector_26" d="M101.726 15.3264C101.726 15.3264 101.17 20.6269 101.726 21.5907C102.281 22.5544 96.0874 20.6269 96.0874 20.6269C96.0874 20.6269 97.4374 17.0129 96.9609 15.5673C96.4844 14.1217 101.726 15.3264 101.726 15.3264Z" fill="#F7E5B7"/>
<path id="Vector_27" d="M104.901 30.5861L106.172 34.1198L94.3399 35.4851C94.3399 35.4851 93.0693 35.2442 93.0693 34.2001C93.0693 33.1561 91.7194 29.4618 91.7194 29.4618C91.7194 29.4618 88.4131 26.7516 86.8249 26.0288C86.2492 25.7669 87.1104 25.8751 87.5948 24.7636C87.7401 24.4295 87.914 24.0769 88.1038 23.7195C88.2587 23.4264 88.4254 23.1292 88.5962 22.8361C88.8034 22.4787 89.017 22.1269 89.2243 21.792C89.8516 20.7793 90.4242 19.928 90.6076 19.5835C91.1635 18.5394 96.3895 18.4463 96.3895 18.4463C97.8839 19.3971 102.201 19.5835 102.201 19.5835C102.201 19.5835 105.171 20.8403 106.409 21.792C106.498 21.8603 104.901 30.5861 104.901 30.5861Z" fill="#6318AF"/>
<path id="Vector_28" d="M102.333 8.25345V8.15761L102.22 8.16395C101.581 7.67123 100.838 7.33234 100.05 7.17298C99.2613 7.01362 98.4472 7.03797 97.6693 7.24419C98.415 7.44348 99.1083 7.80578 99.7005 8.30553L95.8756 8.52043L94.2612 12.1486H95.3538L96.2343 10.5159V12.1486H99.9295L100.181 10.8788L100.878 12.1486H101.604C101.609 12.2392 101.616 12.3291 101.616 12.4207L100.898 19.4051L104.306 17.9538V12.4207C104.307 11.621 104.13 10.8314 103.788 10.1101C103.447 9.38883 102.949 8.75433 102.333 8.25345Z" fill="#2F2E41"/>
<path id="Vector_29" d="M107.681 26.7313L107.443 33.0759L106.807 45.3635C106.807 45.3635 107.681 50.664 105.457 50.5837C103.234 50.5034 104.901 44.3195 104.901 44.3195L104.266 34.6018L104.901 27.7753L107.681 26.7313Z" fill="#F7E5B7"/>
<path id="Vector_30" d="M108.317 30.1846C108.317 30.9074 104.307 30.7066 104.307 30.7066L102.202 19.5835C102.202 19.5835 105.172 20.8404 106.41 21.7921C106.701 22.0975 106.939 22.4505 107.114 22.8361C107.208 23.0939 107.298 23.3927 107.383 23.7195C107.467 24.044 107.546 24.3966 107.62 24.7636C107.966 26.5537 108.199 28.3644 108.317 30.1846Z" fill="#6318AF"/>
<path id="Vector_31" d="M4.78994 55.3151L4.75317 55.5721L5.01139 55.5991L10.8658 56.2122V56.508L4.9929 57.054L4.71109 57.0802L4.77187 57.3566C4.83485 57.6431 4.82368 57.9411 4.73945 58.2219C4.65523 58.5026 4.50089 58.7563 4.29166 58.9585C4.08245 59.1607 3.82544 59.3047 3.54561 59.3768C3.26579 59.4489 2.97236 59.4467 2.6936 59.3705C2.41482 59.2942 2.15992 59.1465 1.95365 58.9411C1.74736 58.7358 1.59671 58.4798 1.51657 58.1979C1.43642 57.9159 1.42957 57.6177 1.4967 57.3323C1.56383 57.0468 1.7026 56.784 1.89929 56.5691L2.0542 56.3999L1.89888 56.2311C1.7053 56.0207 1.5674 55.7638 1.49832 55.4844C1.42924 55.205 1.43131 54.9124 1.50433 54.634C1.57735 54.3557 1.71887 54.1008 1.91538 53.8932C2.11188 53.6857 2.35694 53.5321 2.62754 53.4466C2.89812 53.3611 3.18563 53.3464 3.4633 53.4038C3.74098 53.4611 4.00003 53.5888 4.21616 53.7751C4.4323 53.9614 4.5985 54.2003 4.69895 54.4697C4.7994 54.7391 4.83074 55.03 4.78994 55.3151Z" fill="#F7E5B7" stroke="#3C3C3C" stroke-width="0.5"/>
<path id="Vector_32" d="M21.9692 56.2036L21.9692 56.2037C21.9724 56.2684 21.9741 56.3336 21.974 56.3992C21.974 56.4649 21.9724 56.5301 21.9692 56.5948C21.8527 58.9175 19.6001 60.5276 17.3579 59.97L9.25158 57.954L9.22175 57.9466L9.19101 57.9466C8.99072 57.9468 8.79229 57.9071 8.60705 57.8296C8.4218 57.7522 8.25327 57.6385 8.11117 57.4949C7.96907 57.3513 7.85619 57.1807 7.77912 56.9927C7.70206 56.8046 7.66235 56.603 7.66235 56.3992C7.66235 56.1955 7.70206 55.9939 7.77912 55.8058C7.85619 55.6178 7.96907 55.4471 8.11117 55.3036C8.25327 55.16 8.4218 55.0463 8.60705 54.9688C8.7923 54.8914 8.99073 54.8517 9.19101 54.8519L9.22175 54.8519L9.25158 54.8445L17.3579 52.8285C19.6001 52.2709 21.8527 53.8809 21.9692 56.2036Z" fill="#F7E5B7" stroke="#3C3C3C" stroke-width="0.5"/>
</g>
</svg>
