<svg width="112" height="87" viewBox="0 0 112 87" fill="none" xmlns="http://www.w3.org/2000/svg">
<g id="Frame 2271">
<g id="Group 735">
<path id="Vector" d="M76.2666 83.4765C76.6312 83.4999 76.8327 83.0359 76.5569 82.7654L76.5294 82.6536C76.5331 82.6447 76.5367 82.6358 76.5403 82.6268C76.909 81.7262 78.1585 81.7324 78.524 82.6344C78.8485 83.4349 79.2616 84.2369 79.3633 85.0834C79.4089 85.457 79.3883 85.8377 79.3074 86.2043C80.0676 84.503 80.4677 82.6452 80.4677 80.7769C80.4677 80.3074 80.4426 79.838 80.3913 79.3698C80.3492 78.9868 80.291 78.6061 80.2158 78.2289C79.8089 76.1901 78.9279 74.2482 77.6571 72.6263C77.0461 72.2841 76.5367 71.7493 76.2289 71.1082C76.1184 70.877 76.0318 70.6283 75.9907 70.3749C76.0602 70.3843 76.2529 69.2995 76.2004 69.2329C76.2973 69.0823 76.4707 69.0074 76.5766 68.8604C77.1028 68.1294 77.8279 68.257 78.2064 69.2504C79.015 69.6685 79.0229 70.3619 78.5267 71.0288C78.211 71.4531 78.1677 72.0272 77.8907 72.4815C77.9192 72.5188 77.9488 72.555 77.9773 72.5924C78.4999 73.279 78.9518 74.017 79.3328 74.7924C79.2251 73.9307 79.3841 72.8926 79.6551 72.2234C79.9635 71.4609 80.5418 70.8188 81.051 70.1597C81.6626 69.3679 82.9168 69.7135 83.0245 70.7171C83.0256 70.7268 83.0266 70.7365 83.0276 70.7462C82.952 70.79 82.8779 70.8364 82.8055 70.8854C82.3927 71.1652 82.5353 71.8208 83.0245 71.8982L83.0356 71.8999C83.0082 72.179 82.9615 72.4558 82.8931 72.7278C83.5463 75.316 82.1361 76.2587 80.1224 76.301C80.0779 76.3244 80.0346 76.3477 79.9901 76.3699C80.1942 76.9584 80.3572 77.5622 80.478 78.174C80.5862 78.7147 80.6615 79.2612 80.7036 79.81C80.7561 80.5024 80.7515 81.1984 80.6945 81.8897L80.6979 81.8652C80.8427 81.1038 81.2462 80.3927 81.832 79.8999C82.7047 79.1654 83.9377 78.8949 84.8792 78.3046C85.3324 78.0204 85.9132 78.3876 85.8341 78.926L85.8303 78.9517C85.6901 79.0101 85.5533 79.0778 85.4211 79.1537C85.3455 79.1975 85.2714 79.2439 85.199 79.2929C84.7862 79.5727 84.9288 80.2283 85.418 80.3057L85.4291 80.3074C85.4371 80.3086 85.4439 80.3098 85.4519 80.3109C85.2114 80.896 84.8763 81.4389 84.4569 81.9072C84.0484 84.1666 82.2941 84.3809 80.4176 83.723H80.4164C80.2113 84.6385 79.9115 85.5329 79.5263 86.3854H76.3463C76.3349 86.3492 76.3247 86.3118 76.3144 86.2756C76.6085 86.2943 76.9048 86.2768 77.1943 86.2219C76.9584 85.9253 76.7225 85.6263 76.4865 85.3298C76.4808 85.3239 76.4763 85.3181 76.4717 85.3122C76.352 85.1604 76.2312 85.0098 76.1115 84.858L76.1115 84.8578C76.104 84.3918 76.1586 83.9273 76.2666 83.4765Z" fill="#F7E5B7"/>
<path id="Vector_2" d="M42.9801 80.9239C42.2955 80.9678 41.9172 80.0964 42.4351 79.5885L42.4867 79.3786C42.4799 79.3618 42.473 79.345 42.4662 79.3282C41.7739 77.6369 39.4275 77.6486 38.741 79.3424C38.1318 80.8458 37.3561 82.3517 37.1651 83.9413C37.0795 84.643 37.118 85.3578 37.27 86.0464C35.8424 82.8515 35.0911 79.3627 35.0911 75.8542C35.0911 74.9727 35.1382 74.0912 35.2345 73.2119C35.3137 72.4927 35.4229 71.7778 35.5641 71.0695C36.3282 67.2409 37.9827 63.5943 40.3691 60.5485C41.5163 59.906 42.4731 58.9017 43.051 57.6979C43.2586 57.2637 43.4212 56.7966 43.4983 56.3208C43.3677 56.3383 43.006 54.3012 43.1045 54.1762C42.9225 53.8933 42.5969 53.7527 42.3982 53.4767C41.4099 52.104 40.0483 52.3437 39.3375 54.2091C37.819 54.9943 37.8043 56.2964 38.7361 57.5487C39.3288 58.3455 39.4103 59.4236 39.9304 60.2766C39.8768 60.3467 39.8212 60.4147 39.7677 60.4849C38.7865 61.7743 37.9378 63.1602 37.2224 64.6162C37.4246 62.998 37.1261 61.0486 36.6171 59.792C36.0378 58.3602 34.952 57.1543 33.9958 55.9165C32.8472 54.4298 30.492 55.0786 30.2897 56.9633C30.2877 56.9816 30.2858 56.9998 30.2839 57.0181C30.426 57.1002 30.5651 57.1874 30.701 57.2795C31.4763 57.8047 31.2084 59.036 30.2898 59.1813L30.269 59.1845C30.3203 59.7086 30.4081 60.2283 30.5365 60.7393C29.3098 65.5995 31.9581 67.3697 35.7396 67.4492C35.8231 67.4931 35.9044 67.5369 35.9879 67.5786C35.6048 68.6838 35.2987 69.8175 35.0718 70.9665C34.8685 71.9817 34.7272 73.008 34.6481 74.0386C34.5496 75.3389 34.5582 76.6458 34.6652 77.944L34.6588 77.8979C34.387 76.4682 33.6293 75.1328 32.5291 74.2074C30.8903 72.8282 28.5749 72.3203 26.8068 71.2116C25.9558 70.6779 24.8652 71.3676 25.0137 72.3785L25.0209 72.4269C25.2842 72.5365 25.541 72.6637 25.7893 72.8062C25.9313 72.8883 26.0705 72.9755 26.2064 73.0676C26.9816 73.5929 26.7137 74.8242 25.7951 74.9695L25.7743 74.9727C25.7593 74.9749 25.7465 74.9771 25.7315 74.9793C26.1831 76.0779 26.8124 77.0976 27.6 77.9769C28.367 82.2197 31.6614 82.6222 35.1853 81.3867H35.1874C35.5727 83.1058 36.1356 84.7855 36.859 86.3863H42.8305C42.8519 86.3183 42.8712 86.2481 42.8904 86.1801C42.3382 86.2152 41.7818 86.1823 41.2381 86.0793C41.6812 85.5223 42.1242 84.9609 42.5672 84.404C42.5779 84.393 42.5865 84.382 42.5951 84.3711C42.8198 84.086 43.0467 83.8032 43.2714 83.5181L43.2715 83.5178C43.2856 82.6427 43.1832 81.7705 42.9803 80.924L42.9801 80.9239Z" fill="#F7E5B7"/>
<path id="Vector_3" d="M64.7127 26.6118C64.7127 26.5702 64.7109 26.5304 64.7091 26.4889C64.7091 26.4545 64.7074 26.4202 64.7056 26.3858H62.7416C62.6957 26.4346 62.6498 26.4798 62.6022 26.5196C62.581 26.5395 62.558 26.5576 62.5369 26.5738C62.521 26.5883 62.5051 26.5991 62.4892 26.61C62.4451 26.6407 62.4028 26.6678 62.3586 26.6895C62.3428 26.6986 62.3269 26.7058 62.311 26.7112C62.2722 26.7293 62.2334 26.7402 62.1945 26.7474H64.7144C64.7144 26.7022 64.7144 26.657 64.7127 26.6118ZM60.8005 26.657C60.7387 26.6534 60.6787 26.648 60.6169 26.6443C60.4211 26.6299 60.2217 26.6172 60.0223 26.6028C59.9217 26.5955 59.8228 26.5901 59.724 26.5829C59.7134 26.5829 59.7046 26.5793 59.694 26.5756C59.6887 26.572 59.6834 26.5702 59.6781 26.5648C59.6676 26.5594 59.6552 26.5485 59.6446 26.5359C59.634 26.525 59.6234 26.5106 59.6129 26.4961C59.604 26.4834 59.5934 26.4672 59.5846 26.4527C59.5723 26.431 59.5617 26.4093 59.5493 26.3858H58.8311C58.8205 26.4057 58.8099 26.422 58.8011 26.4364L58.7976 26.44C58.7888 26.4527 58.7799 26.4654 58.7711 26.4744C58.7499 26.4979 58.7305 26.5106 58.7111 26.5087C58.6741 26.5051 58.637 26.5015 58.6017 26.4925C58.5876 26.4907 58.5752 26.487 58.5611 26.4834C58.5488 26.4798 58.5347 26.4762 58.5223 26.4726C58.4941 26.4635 58.4658 26.4527 58.4394 26.4419C58.4323 26.4382 58.4253 26.4364 58.4182 26.4328C58.3882 26.4183 58.3582 26.4039 58.3282 26.3858H56.1012C56.0147 26.5033 55.9353 26.6244 55.8595 26.7474H61.9881C61.6298 26.7148 61.224 26.6859 60.8005 26.657ZM64.7127 26.6118C64.7127 26.5702 64.7109 26.5304 64.7091 26.4889C64.7091 26.4545 64.7074 26.4202 64.7056 26.3858H62.7416C62.6957 26.4346 62.6498 26.4798 62.6022 26.5196C62.581 26.5395 62.558 26.5576 62.5369 26.5738C62.521 26.5883 62.5051 26.5991 62.4892 26.61C62.4451 26.6407 62.4028 26.6678 62.3586 26.6895C62.3428 26.6986 62.3269 26.7058 62.311 26.7112C62.2722 26.7293 62.2334 26.7402 62.1945 26.7474H64.7144C64.7144 26.7022 64.7144 26.657 64.7127 26.6118ZM60.8005 26.657C60.7387 26.6534 60.6787 26.648 60.6169 26.6443C60.4211 26.6299 60.2217 26.6172 60.0223 26.6028C59.9217 26.5955 59.8228 26.5901 59.724 26.5829C59.7134 26.5829 59.7046 26.5793 59.694 26.5756C59.6887 26.572 59.6834 26.5702 59.6781 26.5648C59.6676 26.5594 59.6552 26.5485 59.6446 26.5359C59.634 26.525 59.6234 26.5106 59.6129 26.4961C59.604 26.4834 59.5934 26.4672 59.5846 26.4527C59.5723 26.431 59.5617 26.4093 59.5493 26.3858H58.8311C58.8205 26.4057 58.8099 26.422 58.8011 26.4364L58.7976 26.44C58.7888 26.4527 58.7799 26.4654 58.7711 26.4744C58.7499 26.4979 58.7305 26.5106 58.7111 26.5087C58.6741 26.5051 58.637 26.5015 58.6017 26.4925C58.5876 26.4907 58.5752 26.487 58.5611 26.4834C58.5488 26.4798 58.5347 26.4762 58.5223 26.4726C58.4941 26.4635 58.4658 26.4527 58.4394 26.4419C58.4323 26.4382 58.4253 26.4364 58.4182 26.4328C58.3882 26.4183 58.3582 26.4039 58.3282 26.3858H56.1012C56.0147 26.5033 55.9353 26.6244 55.8595 26.7474H61.9881C61.6298 26.7148 61.224 26.6859 60.8005 26.657ZM83.6438 26.3858H33.182C31.3309 26.3858 29.8257 27.928 29.8257 29.8245V83.1507C29.8257 85.0471 31.3309 86.5893 33.182 86.5893H83.6438C85.4949 86.5893 87.0001 85.0471 87.0001 83.1507V29.8245C87.0001 27.928 85.4949 26.3858 83.6438 26.3858ZM86.6472 83.1506C86.6472 84.8483 85.3008 86.2277 83.6438 86.2277H33.182C31.525 86.2277 30.1786 84.8483 30.1786 83.1506V29.8245C30.1786 28.1268 31.525 26.7474 33.182 26.7474H83.6438C85.3008 26.7474 86.6472 28.1268 86.6472 29.8245V83.1506ZM60.8005 26.657C60.7387 26.6534 60.6787 26.648 60.6169 26.6443C60.4211 26.6299 60.2217 26.6172 60.0223 26.6028C59.9217 26.5955 59.8228 26.5901 59.724 26.5829C59.7134 26.5829 59.7046 26.5793 59.694 26.5756C59.6887 26.572 59.6834 26.5702 59.6781 26.5648C59.6676 26.5594 59.6552 26.5485 59.6446 26.5359C59.634 26.525 59.6234 26.5106 59.6129 26.4961C59.604 26.4834 59.5934 26.4672 59.5846 26.4527C59.5723 26.431 59.5617 26.4093 59.5493 26.3858H58.8311C58.8205 26.4057 58.8099 26.422 58.8011 26.4364L58.7976 26.44C58.7888 26.4527 58.7799 26.4654 58.7711 26.4744C58.7499 26.4979 58.7305 26.5106 58.7111 26.5087C58.6741 26.5051 58.637 26.5015 58.6017 26.4925C58.5876 26.4907 58.5752 26.487 58.5611 26.4834C58.5488 26.4798 58.5347 26.4762 58.5223 26.4726C58.4941 26.4635 58.4658 26.4527 58.4394 26.4419C58.4323 26.4382 58.4253 26.4364 58.4182 26.4328C58.3882 26.4183 58.3582 26.4039 58.3282 26.3858H56.1012C56.0147 26.5033 55.9353 26.6244 55.8595 26.7474H61.9881C61.6298 26.7148 61.224 26.6859 60.8005 26.657ZM64.7127 26.6118C64.7127 26.5702 64.7109 26.5304 64.7091 26.4889C64.7091 26.4545 64.7074 26.4202 64.7056 26.3858H62.7416C62.6957 26.4346 62.6498 26.4798 62.6022 26.5196C62.581 26.5395 62.558 26.5576 62.5369 26.5738C62.521 26.5883 62.5051 26.5991 62.4892 26.61C62.4451 26.6407 62.4028 26.6678 62.3586 26.6895C62.3428 26.6986 62.3269 26.7058 62.311 26.7112C62.2722 26.7293 62.2334 26.7402 62.1945 26.7474H64.7144C64.7144 26.7022 64.7144 26.657 64.7127 26.6118ZM60.8005 26.657C60.7387 26.6534 60.6787 26.648 60.6169 26.6443C60.4211 26.6299 60.2217 26.6172 60.0223 26.6028C59.9217 26.5955 59.8228 26.5901 59.724 26.5829C59.7134 26.5829 59.7046 26.5793 59.694 26.5756C59.6887 26.572 59.6834 26.5702 59.6781 26.5648C59.6676 26.5594 59.6552 26.5485 59.6446 26.5359C59.634 26.525 59.6234 26.5106 59.6129 26.4961C59.604 26.4834 59.5934 26.4672 59.5846 26.4527C59.5723 26.431 59.5617 26.4093 59.5493 26.3858H58.8311C58.8205 26.4057 58.8099 26.422 58.8011 26.4364L58.7976 26.44C58.7888 26.4527 58.7799 26.4654 58.7711 26.4744C58.7499 26.4979 58.7305 26.5106 58.7111 26.5087C58.6741 26.5051 58.637 26.5015 58.6017 26.4925C58.5876 26.4907 58.5752 26.487 58.5611 26.4834C58.5488 26.4798 58.5347 26.4762 58.5223 26.4726C58.4941 26.4635 58.4658 26.4527 58.4394 26.4419C58.4323 26.4382 58.4253 26.4364 58.4182 26.4328C58.3882 26.4183 58.3582 26.4039 58.3282 26.3858H56.1012C56.0147 26.5033 55.9353 26.6244 55.8595 26.7474H61.9881C61.6298 26.7148 61.224 26.6859 60.8005 26.657ZM64.7127 26.6118C64.7127 26.5702 64.7109 26.5304 64.7091 26.4889C64.7091 26.4545 64.7074 26.4202 64.7056 26.3858H62.7416C62.6957 26.4346 62.6498 26.4798 62.6022 26.5196C62.581 26.5395 62.558 26.5576 62.5369 26.5738C62.521 26.5883 62.5051 26.5991 62.4892 26.61C62.4451 26.6407 62.4028 26.6678 62.3586 26.6895C62.3428 26.6986 62.3269 26.7058 62.311 26.7112C62.2722 26.7293 62.2334 26.7402 62.1945 26.7474H64.7144C64.7144 26.7022 64.7144 26.657 64.7127 26.6118Z" fill="#7E7E7E"/>
<path id="Vector_4" d="M72.1128 26.777C70.7047 27.3062 70.0001 21.8716 69.6486 21.7502C69.3219 21.6374 68.9182 27.1503 68.5925 27.0416C60.7106 24.4103 57.4322 18.0195 50.6346 19.8232C48.7352 13.6635 49.2806 6.97717 51.3387 5.00733C54.5472 0.636703 60.7583 0.787362 65.0362 1.54052C68.3815 2.12948 70.6342 5.47277 69.8392 8.85359C69.7857 9.08136 69.572 9.29613 69.6414 9.50501C69.938 10.3976 72.3703 22.6257 72.1128 26.777Z" fill="#030303"/>
<path id="Vector_5" d="M61.1953 17.4687C65.2781 17.4687 68.5879 14.0778 68.5879 9.89491C68.5879 5.712 65.2781 2.32108 61.1953 2.32108C57.1125 2.32108 53.8027 5.712 53.8027 9.89491C53.8027 14.0778 57.1125 17.4687 61.1953 17.4687Z" fill="#F7E5B7"/>
<path id="Vector_6" d="M67.9226 53.5343H47.2278C48.9624 49.5688 50.0288 45.7921 48.3617 42.788L67.9226 41.6262C66.9451 45.6816 66.8256 49.6615 67.9226 53.5343Z" fill="#F7E5B7"/>
<path id="Vector_7" d="M75.4133 86.5892H59.6568L59.4856 86.2276L56.9728 80.9431L56.724 86.2276L56.7063 86.5892H41.1845C41.1775 86.4681 41.1687 86.3469 41.1616 86.2276C40.2052 71.1044 43.6444 60.8536 45.6614 56.2669L45.6632 56.2651C46.4555 54.4608 47.0308 53.5333 47.0308 53.5333L47.2302 53.5315H47.232L51.2606 53.4592H51.2624L54.8305 53.3977L57.5269 53.3525L58.6086 53.3327H58.6104L59.288 53.3218L62.6567 53.2621L65.6654 53.2097L67.8253 53.1736H67.8853L68.2065 54.5928V54.5946L68.2189 54.6579V54.6597L68.2736 54.8929L68.2753 54.9001L68.3847 55.3901V55.3937L68.3918 55.4208V55.4226L68.4183 55.5401L68.42 55.5455L68.6741 56.6719L69.0853 58.5033L69.627 60.8988L70.31 63.9397L70.6558 65.471L71.1305 67.5808L75.3304 86.2276L75.4133 86.5892Z" fill="#030303"/>
<path id="Vector_8" d="M64.9355 18.2195L56.6997 17.9251L53.4443 22.3976L51.7313 22.7787C49.1635 23.3499 47.4021 25.7763 47.6067 28.4601L47.4668 48.4853L47.0002 51.5772L68.4828 44.8321L72.5135 24.338L66.7703 22.2241L64.9355 18.2195Z" fill="#6318AF"/>
<path id="Vector_9" d="M66.6005 67.0425C66.8366 66.1905 67.241 65.4638 67.7224 64.9455L69.4716 56.684L73.2843 57.6517L71.0995 65.928C71.2431 66.6282 71.2144 67.4642 70.9783 68.3161C70.4388 70.2624 69.0215 71.555 67.8126 71.2033C66.6037 70.8516 66.061 68.9887 66.6005 67.0425Z" fill="#F7E5B7"/>
<path id="Vector_10" d="M67.1265 22.431C67.1265 22.431 74.166 22.0637 74.6786 26.8463C75.1912 31.6288 76.8311 42.9982 76.8311 42.9982L73.0299 61.3835L67.6094 60.6118L70.0048 37.2094L67.1265 22.431Z" fill="#6318AF"/>
<g id="Group">
<path id="Vector_11" d="M71.7325 17.8991C71.1724 20.596 69.4905 22.3116 66.8594 22.8916C64.4977 23.4123 62.6142 20.6557 61.9864 17.8991C61.3749 15.214 64.2216 13.4532 66.8594 12.9066C69.5202 12.3553 72.0314 16.4596 71.7325 17.8991Z" fill="#D0BCFF"/>
<path id="Vector_12" d="M63.6295 16.6421C63.7946 16.6421 63.9285 16.5052 63.9285 16.3364C63.9285 16.1675 63.7946 16.0306 63.6295 16.0306C63.4644 16.0306 63.3306 16.1675 63.3306 16.3364C63.3306 16.5052 63.4644 16.6421 63.6295 16.6421Z" fill="white"/>
<path id="Vector_13" d="M70.5365 16.6421C70.7016 16.6421 70.8355 16.5052 70.8355 16.3364C70.8355 16.1675 70.7016 16.0306 70.5365 16.0306C70.3714 16.0306 70.2375 16.1675 70.2375 16.3364C70.2375 16.5052 70.3714 16.6421 70.5365 16.6421Z" fill="white"/>
<path id="Vector_14" d="M66.2013 17.1928C66.3664 17.1928 66.5003 17.0559 66.5003 16.8871C66.5003 16.7182 66.3664 16.5814 66.2013 16.5814C66.0362 16.5814 65.9023 16.7182 65.9023 16.8871C65.9023 17.0559 66.0362 17.1928 66.2013 17.1928Z" fill="white"/>
<path id="Vector_15" d="M68.4149 15.447C68.58 15.447 68.7139 15.3102 68.7139 15.1413C68.7139 14.9725 68.58 14.8356 68.4149 14.8356C68.2498 14.8356 68.116 14.9725 68.116 15.1413C68.116 15.3102 68.2498 15.447 68.4149 15.447Z" fill="white"/>
<path id="Vector_16" d="M65.8132 14.2837C66.1122 14.3754 65.6794 14.5894 65.5143 14.5894C65.3492 14.5894 65.2153 14.4526 65.2153 14.2837C65.2153 14.1149 65.3492 13.978 65.5143 13.978C65.6794 13.978 65.5143 14.192 65.8132 14.2837Z" fill="white"/>
<path id="Vector_17" d="M67.698 18.3584C67.997 18.4501 67.5642 18.6641 67.3991 18.6641C67.2339 18.6641 67.1001 18.5272 67.1001 18.3584C67.1001 18.1895 67.2339 18.0527 67.3991 18.0527C67.5642 18.0527 67.3991 18.2667 67.698 18.3584Z" fill="white"/>
<path id="Vector_18" d="M67.5764 14.2225C67.8754 14.3142 67.4426 14.5282 67.2775 14.5282C67.1124 14.5282 66.9785 14.3914 66.9785 14.2225C66.9785 14.0537 67.1124 13.9168 67.2775 13.9168C67.4426 13.9168 67.2775 14.1308 67.5764 14.2225Z" fill="white"/>
<path id="Vector_19" d="M68.1436 20.9006C68.4425 20.9923 68.0097 21.2063 67.8446 21.2063C67.6795 21.2063 67.5457 21.0694 67.5457 20.9006C67.5457 20.7317 67.6795 20.5948 67.8446 20.5948C68.0097 20.5948 67.8446 20.8088 68.1436 20.9006Z" fill="white"/>
<path id="Vector_20" d="M64.468 20.0421C64.767 20.1338 64.3342 20.3478 64.1691 20.3478C64.004 20.3478 63.8701 20.2109 63.8701 20.0421C63.8701 19.8732 64.004 19.7364 64.1691 19.7364C64.3342 19.7364 64.1691 19.9504 64.468 20.0421Z" fill="#F7E5B7"/>
<path id="Vector_21" d="M69.8194 18.2963C70.1183 18.388 69.6855 18.602 69.5204 18.602C69.3553 18.602 69.2214 18.4652 69.2214 18.2963C69.2214 18.1275 69.3553 17.9906 69.5204 17.9906C69.6855 17.9906 69.5204 18.2046 69.8194 18.2963Z" fill="white"/>
<path id="Vector_22" d="M64.1099 18.2963C64.4088 18.388 63.976 18.602 63.8109 18.602C63.6458 18.602 63.512 18.4652 63.512 18.2963C63.512 18.1275 63.6458 17.9906 63.8109 17.9906C63.976 17.9906 63.8109 18.2046 64.1099 18.2963Z" fill="#F7E5B7"/>
<path id="Vector_23" d="M66.1421 21.9723C66.4411 22.0641 66.0083 22.2781 65.8431 22.2781C65.678 22.2781 65.5442 22.1412 65.5442 21.9723C65.5442 21.8035 65.678 21.6666 65.8431 21.6666C66.0083 21.6666 65.8431 21.8806 66.1421 21.9723Z" fill="white"/>
</g>
<path id="Vector_24" d="M64.3784 22.7482C63.8285 23.4316 63.1736 23.931 62.5296 24.208L57.6927 31.0568L54.5791 28.6035L59.8209 21.9202C59.9635 21.2197 60.3171 20.4658 60.867 19.7824C62.1232 18.2213 63.9276 17.6197 64.8972 18.4387C65.8669 19.2577 65.6346 21.1871 64.3784 22.7482Z" fill="#F7E5B7"/>
<path id="Vector_25" d="M56.979 27.5708C57.7793 23.5235 55.175 17.6653 55.1178 14.6345C55.0669 11.9378 55.6969 12.1456 57.7647 10.4763L58.8235 7.76444C59.619 7.45534 60.3868 8.43219 60.7766 9.06186C60.9756 9.38335 61.4254 9.38787 61.6335 9.07249C61.7346 8.91943 61.8322 8.80797 61.9001 8.81287C62.184 8.83335 62.389 9.98154 62.6793 10.0015C63.8995 10.0853 66.6643 10.0251 67.6467 10.1147C68.7174 10.2124 68.4743 7.52004 68.5886 7.7309C69.4813 9.37707 69.0006 7.22206 67.8472 6.31887L69.5635 6.4989C70.5883 9.84832 71.5785 13.1739 70.6466 15.1769L68.938 10.2555C68.938 5.27584 66.4765 -0.564259 59.4359 0.878377C54.6443 0.387442 50.2973 3.75704 49.4413 8.61208C49.025 10.9734 48.3778 13.3537 47.9389 15.4274C47.5478 17.2752 48.097 19.7845 49.9312 19.9933L51.1777 22.9509C51.1777 24.6858 53.4606 26.1341 55.0872 25.8919C55.9229 25.7675 56.894 27.2805 57.0011 27.6515L56.979 27.5708Z" fill="#030303"/>
<g id="Group_2">
<path id="Vector_26" d="M76.971 48.3419C76.8227 47.7019 76.5033 47.1433 76.0639 46.7148L76.0622 46.713C75.471 46.129 74.661 45.7801 73.7787 45.7801H58.9804C56.6405 45.7801 54.7294 47.6369 54.6306 50.0106C54.6041 50.5964 54.6147 51.1786 54.6535 51.7589C54.687 52.3103 54.7506 52.8563 54.83 53.3969C54.837 53.4421 54.8423 53.4873 54.8512 53.5325V53.5343C55.2253 55.9243 55.9964 58.2113 56.7676 60.2488C58.2269 64.1051 61.9186 66.6977 65.9578 66.6977C66.2137 66.6977 66.466 66.6868 66.7166 66.6669H66.7184C68.1195 66.5585 69.4571 66.1408 70.6553 65.4701C70.8865 65.3435 71.1088 65.2079 71.3259 65.0597C71.3259 65.0597 71.3276 65.0597 71.3276 65.0579C72.9335 63.9876 74.234 62.4382 75.0281 60.5508C76.5439 56.9458 77.9627 52.6737 76.971 48.3419Z" fill="white"/>
<g id="Group_3">
<path id="Vector_27" d="M67.8594 59.0149C67.2993 61.7118 65.6175 63.4273 62.9864 64.0074C60.6246 64.5281 58.7412 61.7715 58.1134 59.0149C57.5018 56.3297 60.3485 54.569 62.9864 54.0224C65.6471 53.4711 68.1584 57.5753 67.8594 59.0149Z" fill="#7E7E7E"/>
<path id="Vector_28" d="M59.7565 57.7578C59.9216 57.7578 60.0554 57.6209 60.0554 57.4521C60.0554 57.2833 59.9216 57.1464 59.7565 57.1464C59.5914 57.1464 59.4575 57.2833 59.4575 57.4521C59.4575 57.6209 59.5914 57.7578 59.7565 57.7578Z" fill="#F7E5B7"/>
<path id="Vector_29" d="M66.6637 57.7578C66.8288 57.7578 66.9627 57.6209 66.9627 57.4521C66.9627 57.2833 66.8288 57.1464 66.6637 57.1464C66.4986 57.1464 66.3647 57.2833 66.3647 57.4521C66.3647 57.6209 66.4986 57.7578 66.6637 57.7578Z" fill="#F7E5B7"/>
<path id="Vector_30" d="M62.3285 58.3095C62.4936 58.3095 62.6275 58.1726 62.6275 58.0037C62.6275 57.8349 62.4936 57.698 62.3285 57.698C62.1634 57.698 62.0295 57.8349 62.0295 58.0037C62.0295 58.1726 62.1634 58.3095 62.3285 58.3095Z" fill="#F7E5B7"/>
<path id="Vector_31" d="M64.5407 56.5637C64.7058 56.5637 64.8396 56.4268 64.8396 56.258C64.8396 56.0891 64.7058 55.9522 64.5407 55.9522C64.3755 55.9522 64.2417 56.0891 64.2417 56.258C64.2417 56.4268 64.3755 56.5637 64.5407 56.5637Z" fill="#F7E5B7"/>
<path id="Vector_32" d="M61.9402 55.4004C62.2392 55.4921 61.8064 55.7061 61.6412 55.7061C61.4761 55.7061 61.3423 55.5692 61.3423 55.4004C61.3423 55.2315 61.4761 55.0947 61.6412 55.0947C61.8064 55.0947 61.6412 55.3087 61.9402 55.4004Z" fill="#F7E5B7"/>
<path id="Vector_33" d="M63.822 59.4741C64.121 59.5659 63.6882 59.7799 63.5231 59.7799C63.358 59.7799 63.2241 59.643 63.2241 59.4741C63.2241 59.3053 63.358 59.1684 63.5231 59.1684C63.6882 59.1684 63.5231 59.3824 63.822 59.4741Z" fill="#F7E5B7"/>
<path id="Vector_34" d="M63.7036 55.3392C64.0026 55.4309 63.5698 55.6449 63.4047 55.6449C63.2396 55.6449 63.1057 55.508 63.1057 55.3392C63.1057 55.1703 63.2396 55.0334 63.4047 55.0334C63.5698 55.0334 63.4047 55.2474 63.7036 55.3392Z" fill="#F7E5B7"/>
<path id="Vector_35" d="M64.2708 62.0163C64.5697 62.108 64.1369 62.322 63.9718 62.322C63.8067 62.322 63.6729 62.1852 63.6729 62.0163C63.6729 61.8475 63.8067 61.7106 63.9718 61.7106C64.1369 61.7106 63.9718 61.9246 64.2708 62.0163Z" fill="#F7E5B7"/>
<path id="Vector_36" d="M60.5952 61.1578C60.8942 61.2495 60.4614 61.4635 60.2963 61.4635C60.1312 61.4635 59.9973 61.3267 59.9973 61.1578C59.9973 60.989 60.1312 60.8521 60.2963 60.8521C60.4614 60.8521 60.2963 61.0661 60.5952 61.1578Z" fill="#F7E5B7"/>
<path id="Vector_37" d="M65.9463 59.412C66.2453 59.5038 65.8125 59.7177 65.6473 59.7177C65.4822 59.7177 65.3484 59.5809 65.3484 59.412C65.3484 59.2432 65.4822 59.1063 65.6473 59.1063C65.8125 59.1063 65.6473 59.3203 65.9463 59.412Z" fill="#F7E5B7"/>
<path id="Vector_38" d="M60.2356 59.412C60.5346 59.5038 60.1018 59.7177 59.9367 59.7177C59.7715 59.7177 59.6377 59.5809 59.6377 59.412C59.6377 59.2432 59.7715 59.1063 59.9367 59.1063C60.1018 59.1063 59.9367 59.3203 60.2356 59.412Z" fill="#F7E5B7"/>
<path id="Vector_39" d="M62.2693 63.0881C62.5683 63.1798 62.1355 63.3938 61.9703 63.3938C61.8052 63.3938 61.6714 63.2569 61.6714 63.0881C61.6714 62.9193 61.8052 62.7824 61.9703 62.7824C62.1355 62.7824 61.9703 62.9964 62.2693 63.0881Z" fill="#F7E5B7"/>
</g>
<g id="Group_4">
<path id="Vector_40" d="M72.0828 52.1632C71.5227 54.8601 69.8409 56.5756 67.2098 57.1557C64.848 57.6764 62.9646 54.9198 62.3368 52.1632C61.7252 49.478 64.5719 47.7172 67.2098 47.1707C69.8705 46.6193 72.3818 50.7236 72.0828 52.1632Z" fill="#7E7E7E"/>
<path id="Vector_41" d="M63.9816 50.9064C64.1467 50.9064 64.2805 50.7696 64.2805 50.6007C64.2805 50.4319 64.1467 50.295 63.9816 50.295C63.8165 50.295 63.6826 50.4319 63.6826 50.6007C63.6826 50.7696 63.8165 50.9064 63.9816 50.9064Z" fill="#F7E5B7"/>
<path id="Vector_42" d="M70.8871 50.9064C71.0522 50.9064 71.1861 50.7696 71.1861 50.6007C71.1861 50.4319 71.0522 50.295 70.8871 50.295C70.722 50.295 70.5881 50.4319 70.5881 50.6007C70.5881 50.7696 70.722 50.9064 70.8871 50.9064Z" fill="#F7E5B7"/>
<path id="Vector_43" d="M66.5519 51.4572C66.717 51.4572 66.8508 51.3203 66.8508 51.1514C66.8508 50.9826 66.717 50.8457 66.5519 50.8457C66.3868 50.8457 66.2529 50.9826 66.2529 51.1514C66.2529 51.3203 66.3868 51.4572 66.5519 51.4572Z" fill="#F7E5B7"/>
<path id="Vector_44" d="M68.7658 49.7114C68.9309 49.7114 69.0647 49.5745 69.0647 49.4057C69.0647 49.2368 68.9309 49.0999 68.7658 49.0999C68.6006 49.0999 68.4668 49.2368 68.4668 49.4057C68.4668 49.5745 68.6006 49.7114 68.7658 49.7114Z" fill="#F7E5B7"/>
<path id="Vector_45" d="M66.1653 48.549C66.4643 48.6407 66.0315 48.8547 65.8663 48.8547C65.7012 48.8547 65.5674 48.7178 65.5674 48.549C65.5674 48.3801 65.7012 48.2433 65.8663 48.2433C66.0315 48.2433 65.8663 48.4573 66.1653 48.549Z" fill="#F7E5B7"/>
<path id="Vector_46" d="M68.0471 52.6218C68.3461 52.7136 67.9133 52.9276 67.7482 52.9276C67.5831 52.9276 67.4492 52.7907 67.4492 52.6218C67.4492 52.453 67.5831 52.3161 67.7482 52.3161C67.9133 52.3161 67.7482 52.5301 68.0471 52.6218Z" fill="#F7E5B7"/>
<path id="Vector_47" d="M67.9273 48.4869C68.2262 48.5786 67.7934 48.7926 67.6283 48.7926C67.4632 48.7926 67.3293 48.6557 67.3293 48.4869C67.3293 48.3181 67.4632 48.1812 67.6283 48.1812C67.7934 48.1812 67.6283 48.3952 67.9273 48.4869Z" fill="#F7E5B7"/>
<path id="Vector_48" d="M68.4959 55.164C68.7948 55.2557 68.362 55.4697 68.1969 55.4697C68.0318 55.4697 67.8979 55.3329 67.8979 55.164C67.8979 54.9952 68.0318 54.8583 68.1969 54.8583C68.362 54.8583 68.1969 55.0723 68.4959 55.164Z" fill="#F7E5B7"/>
<path id="Vector_49" d="M64.8186 54.3065C65.1176 54.3982 64.6848 54.6122 64.5197 54.6122C64.3546 54.6122 64.2207 54.4753 64.2207 54.3065C64.2207 54.1376 64.3546 54.0007 64.5197 54.0007C64.6848 54.0007 64.5197 54.2147 64.8186 54.3065Z" fill="#F7E5B7"/>
<path id="Vector_50" d="M70.1699 52.5607C70.4689 52.6524 70.0361 52.8664 69.871 52.8664C69.7059 52.8664 69.572 52.7295 69.572 52.5607C69.572 52.3918 69.7059 52.2549 69.871 52.2549C70.0361 52.2549 69.871 52.4689 70.1699 52.5607Z" fill="#F7E5B7"/>
<path id="Vector_51" d="M64.459 52.5607C64.758 52.6524 64.3252 52.8664 64.16 52.8664C63.9949 52.8664 63.8611 52.7295 63.8611 52.5607C63.8611 52.3918 63.9949 52.2549 64.16 52.2549C64.3252 52.2549 64.16 52.4689 64.459 52.5607Z" fill="#F7E5B7"/>
<path id="Vector_52" d="M66.4927 56.2358C66.7917 56.3275 66.3588 56.5415 66.1937 56.5415C66.0286 56.5415 65.8948 56.4046 65.8948 56.2358C65.8948 56.067 66.0286 55.9301 66.1937 55.9301C66.3588 55.9301 66.1937 56.1441 66.4927 56.2358Z" fill="#F7E5B7"/>
</g>
<g id="Group_5">
<path id="Vector_53" d="M66.45 51.0815C65.8899 53.7784 64.208 55.4939 61.577 56.074C59.2152 56.5947 57.3318 53.8381 56.704 51.0815C56.0924 48.3963 58.9391 46.6356 61.577 46.089C64.2377 45.5377 66.749 49.6419 66.45 51.0815Z" fill="#7E7E7E"/>
<path id="Vector_54" d="M58.3473 49.8237C58.5124 49.8237 58.6463 49.6869 58.6463 49.518C58.6463 49.3492 58.5124 49.2123 58.3473 49.2123C58.1822 49.2123 58.0483 49.3492 58.0483 49.518C58.0483 49.6869 58.1822 49.8237 58.3473 49.8237Z" fill="#F7E5B7"/>
<path id="Vector_55" d="M65.2543 49.8237C65.4194 49.8237 65.5532 49.6869 65.5532 49.518C65.5532 49.3492 65.4194 49.2123 65.2543 49.2123C65.0892 49.2123 64.9553 49.3492 64.9553 49.518C64.9553 49.6869 65.0892 49.8237 65.2543 49.8237Z" fill="#F7E5B7"/>
<path id="Vector_56" d="M60.9191 50.3754C61.0842 50.3754 61.218 50.2385 61.218 50.0697C61.218 49.9008 61.0842 49.7639 60.9191 49.7639C60.754 49.7639 60.6201 49.9008 60.6201 50.0697C60.6201 50.2385 60.754 50.3754 60.9191 50.3754Z" fill="#F7E5B7"/>
<path id="Vector_57" d="M63.1312 48.6296C63.2963 48.6296 63.4302 48.4927 63.4302 48.3239C63.4302 48.1551 63.2963 48.0182 63.1312 48.0182C62.9661 48.0182 62.8323 48.1551 62.8323 48.3239C62.8323 48.4927 62.9661 48.6296 63.1312 48.6296Z" fill="#F7E5B7"/>
<path id="Vector_58" d="M60.531 47.4672C60.83 47.5589 60.3972 47.7729 60.2321 47.7729C60.067 47.7729 59.9331 47.6361 59.9331 47.4672C59.9331 47.2984 60.067 47.1615 60.2321 47.1615C60.3972 47.1615 60.2321 47.3755 60.531 47.4672Z" fill="#F7E5B7"/>
<path id="Vector_59" d="M62.4126 51.5401C62.7116 51.6318 62.2788 51.8458 62.1137 51.8458C61.9485 51.8458 61.8147 51.7089 61.8147 51.5401C61.8147 51.3712 61.9485 51.2344 62.1137 51.2344C62.2788 51.2344 62.1137 51.4484 62.4126 51.5401Z" fill="#F7E5B7"/>
<path id="Vector_60" d="M62.2942 47.406C62.5932 47.4977 62.1604 47.7117 61.9952 47.7117C61.8301 47.7117 61.6963 47.5748 61.6963 47.406C61.6963 47.2372 61.8301 47.1003 61.9952 47.1003C62.1604 47.1003 61.9952 47.3143 62.2942 47.406Z" fill="#F7E5B7"/>
<path id="Vector_61" d="M62.8616 54.0822C63.1605 54.1739 62.7277 54.3879 62.5626 54.3879C62.3975 54.3879 62.2637 54.2511 62.2637 54.0822C62.2637 53.9134 62.3975 53.7765 62.5626 53.7765C62.7277 53.7765 62.5626 53.9905 62.8616 54.0822Z" fill="#F7E5B7"/>
<path id="Vector_62" d="M59.1858 53.2247C59.4848 53.3164 59.052 53.5304 58.8868 53.5304C58.7217 53.5304 58.5879 53.3935 58.5879 53.2247C58.5879 53.0558 58.7217 52.9189 58.8868 52.9189C59.052 52.9189 58.8868 53.1329 59.1858 53.2247Z" fill="#F7E5B7"/>
<path id="Vector_63" d="M64.5371 51.4789C64.8361 51.5706 64.4033 51.7846 64.2382 51.7846C64.0731 51.7846 63.9392 51.6477 63.9392 51.4789C63.9392 51.31 64.0731 51.1732 64.2382 51.1732C64.4033 51.1732 64.2382 51.3872 64.5371 51.4789Z" fill="#F7E5B7"/>
<path id="Vector_64" d="M58.8274 51.4789C59.1264 51.5706 58.6936 51.7846 58.5284 51.7846C58.3633 51.7846 58.2295 51.6477 58.2295 51.4789C58.2295 51.31 58.3633 51.1732 58.5284 51.1732C58.6936 51.1732 58.5285 51.3872 58.8274 51.4789Z" fill="#F7E5B7"/>
<path id="Vector_65" d="M60.8599 55.1549C61.1588 55.2466 60.726 55.4606 60.5609 55.4606C60.3958 55.4606 60.262 55.3237 60.262 55.1549C60.262 54.9861 60.3958 54.8492 60.5609 54.8492C60.726 54.8492 60.5609 55.0632 60.8599 55.1549Z" fill="#F7E5B7"/>
</g>
<g id="Group_6">
<path id="Vector_66" d="M70.6766 44.228C70.1165 46.9249 68.4346 48.6404 65.8035 49.2205C63.4418 49.7412 61.5583 46.9846 60.9305 44.228C60.319 41.5428 63.1657 39.7821 65.8035 39.2355C68.4643 38.6842 70.9755 42.7884 70.6766 44.228Z" fill="#D0BCFF"/>
<path id="Vector_67" d="M62.5736 42.9711C62.7387 42.9711 62.8726 42.8343 62.8726 42.6654C62.8726 42.4966 62.7387 42.3597 62.5736 42.3597C62.4085 42.3597 62.2747 42.4966 62.2747 42.6654C62.2747 42.8343 62.4085 42.9711 62.5736 42.9711Z" fill="white"/>
<path id="Vector_68" d="M69.4806 42.9711C69.6457 42.9711 69.7796 42.8343 69.7796 42.6654C69.7796 42.4966 69.6457 42.3597 69.4806 42.3597C69.3155 42.3597 69.1816 42.4966 69.1816 42.6654C69.1816 42.8343 69.3155 42.9711 69.4806 42.9711Z" fill="white"/>
<path id="Vector_69" d="M65.1454 43.5209C65.3105 43.5209 65.4444 43.3841 65.4444 43.2152C65.4444 43.0464 65.3105 42.9095 65.1454 42.9095C64.9803 42.9095 64.8464 43.0464 64.8464 43.2152C64.8464 43.3841 64.9803 43.5209 65.1454 43.5209Z" fill="white"/>
<path id="Vector_70" d="M67.359 41.7761C67.5241 41.7761 67.658 41.6392 67.658 41.4704C67.658 41.3015 67.5241 41.1646 67.359 41.1646C67.1939 41.1646 67.0601 41.3015 67.0601 41.4704C67.0601 41.6392 67.1939 41.7761 67.359 41.7761Z" fill="white"/>
<path id="Vector_71" d="M64.7571 40.6119C65.0561 40.7036 64.6233 40.9176 64.4581 40.9176C64.293 40.9176 64.1592 40.7807 64.1592 40.6119C64.1592 40.443 64.293 40.3062 64.4581 40.3062C64.6233 40.3062 64.4581 40.5202 64.7571 40.6119Z" fill="white"/>
<path id="Vector_72" d="M66.6419 44.6865C66.9408 44.7783 66.508 44.9923 66.3429 44.9923C66.1778 44.9923 66.0439 44.8554 66.0439 44.6865C66.0439 44.5177 66.1778 44.3808 66.3429 44.3808C66.508 44.3808 66.3429 44.5948 66.6419 44.6865Z" fill="white"/>
<path id="Vector_73" d="M66.5205 40.5516C66.8195 40.6433 66.3867 40.8573 66.2216 40.8573C66.0565 40.8573 65.9226 40.7204 65.9226 40.5516C65.9226 40.3828 66.0565 40.2459 66.2216 40.2459C66.3867 40.2459 66.2216 40.4599 66.5205 40.5516Z" fill="white"/>
<path id="Vector_74" d="M67.0877 47.2296C67.3866 47.3213 66.9538 47.5354 66.7887 47.5354C66.6236 47.5354 66.4897 47.3985 66.4897 47.2296C66.4897 47.0608 66.6236 46.9239 66.7887 46.9239C66.9538 46.9239 66.7887 47.1379 67.0877 47.2296Z" fill="#F7E5B7"/>
<path id="Vector_75" d="M63.4119 46.3711C63.7108 46.4629 63.278 46.6769 63.1129 46.6769C62.9478 46.6769 62.814 46.54 62.814 46.3711C62.814 46.2023 62.9478 46.0654 63.1129 46.0654C63.278 46.0654 63.1129 46.2794 63.4119 46.3711Z" fill="#F7E5B7"/>
<path id="Vector_76" d="M68.7634 44.6254C69.0624 44.7171 68.6296 44.9311 68.4645 44.9311C68.2994 44.9311 68.1655 44.7942 68.1655 44.6254C68.1655 44.4565 68.2994 44.3196 68.4645 44.3196C68.6296 44.3196 68.4645 44.5336 68.7634 44.6254Z" fill="white"/>
<path id="Vector_77" d="M63.0537 44.6254C63.3527 44.7171 62.9199 44.9311 62.7548 44.9311C62.5897 44.9311 62.4558 44.7942 62.4558 44.6254C62.4558 44.4565 62.5897 44.3196 62.7548 44.3196C62.9199 44.3196 62.7548 44.5336 63.0537 44.6254Z" fill="white"/>
<path id="Vector_78" d="M65.0862 48.3005C65.3852 48.3922 64.9524 48.6062 64.7872 48.6062C64.6221 48.6062 64.4883 48.4693 64.4883 48.3005C64.4883 48.1317 64.6221 47.9948 64.7872 47.9948C64.9524 47.9948 64.7872 48.2088 65.0862 48.3005Z" fill="#F7E5B7"/>
</g>
<g id="Group_7">
<path id="Vector_79" d="M74.8995 59.0149C74.3394 61.7118 72.6575 63.4273 70.0264 64.0074C67.6647 64.5281 65.7812 61.7715 65.1534 59.0149C64.5419 56.3297 67.3886 54.569 70.0264 54.0224C72.6872 53.4711 75.1984 57.5753 74.8995 59.0149Z" fill="#7E7E7E"/>
<path id="Vector_80" d="M66.7973 57.7578C66.9624 57.7578 67.0962 57.6209 67.0962 57.4521C67.0962 57.2833 66.9624 57.1464 66.7973 57.1464C66.6321 57.1464 66.4983 57.2833 66.4983 57.4521C66.4983 57.6209 66.6321 57.7578 66.7973 57.7578Z" fill="#F7E5B7"/>
<path id="Vector_81" d="M73.7042 57.7578C73.8693 57.7578 74.0032 57.6209 74.0032 57.4521C74.0032 57.2833 73.8693 57.1464 73.7042 57.1464C73.5391 57.1464 73.4053 57.2833 73.4053 57.4521C73.4053 57.6209 73.5391 57.7578 73.7042 57.7578Z" fill="#F7E5B7"/>
<path id="Vector_82" d="M69.369 58.3095C69.5341 58.3095 69.668 58.1726 69.668 58.0037C69.668 57.8349 69.5341 57.698 69.369 57.698C69.2039 57.698 69.0701 57.8349 69.0701 58.0037C69.0701 58.1726 69.2039 58.3095 69.369 58.3095Z" fill="#F7E5B7"/>
<path id="Vector_83" d="M71.5812 56.5628C71.7463 56.5628 71.8801 56.4259 71.8801 56.2571C71.8801 56.0882 71.7463 55.9514 71.5812 55.9514C71.4161 55.9514 71.2822 56.0882 71.2822 56.2571C71.2822 56.4259 71.4161 56.5628 71.5812 56.5628Z" fill="#F7E5B7"/>
<path id="Vector_84" d="M68.981 55.4004C69.2799 55.4921 68.8471 55.7061 68.682 55.7061C68.5169 55.7061 68.3831 55.5692 68.3831 55.4004C68.3831 55.2315 68.5169 55.0947 68.682 55.0947C68.8471 55.0947 68.682 55.3087 68.981 55.4004Z" fill="#F7E5B7"/>
<path id="Vector_85" d="M70.8626 59.4733C71.1615 59.565 70.7287 59.779 70.5636 59.779C70.3985 59.779 70.2646 59.6421 70.2646 59.4733C70.2646 59.3044 70.3985 59.1675 70.5636 59.1675C70.7287 59.1675 70.5636 59.3815 70.8626 59.4733Z" fill="#F7E5B7"/>
<path id="Vector_86" d="M70.7439 55.3392C71.0429 55.4309 70.6101 55.6449 70.445 55.6449C70.2798 55.6449 70.146 55.508 70.146 55.3392C70.146 55.1703 70.2798 55.0334 70.445 55.0334C70.6101 55.0334 70.445 55.2474 70.7439 55.3392Z" fill="#F7E5B7"/>
<path id="Vector_87" d="M71.3113 62.0163C71.6103 62.108 71.1774 62.322 71.0123 62.322C70.8472 62.322 70.7134 62.1852 70.7134 62.0163C70.7134 61.8475 70.8472 61.7106 71.0123 61.7106C71.1774 61.7106 71.0123 61.9246 71.3113 62.0163Z" fill="#F7E5B7"/>
<path id="Vector_88" d="M67.6355 61.1569C67.9345 61.2487 67.5017 61.4627 67.3366 61.4627C67.1714 61.4627 67.0376 61.3258 67.0376 61.1569C67.0376 60.9881 67.1714 60.8512 67.3366 60.8512C67.5017 60.8512 67.3366 61.0652 67.6355 61.1569Z" fill="#F7E5B7"/>
<path id="Vector_89" d="M72.9871 59.412C73.286 59.5038 72.8532 59.7177 72.6881 59.7177C72.523 59.7177 72.3892 59.5809 72.3892 59.412C72.3892 59.2432 72.523 59.1063 72.6881 59.1063C72.8532 59.1063 72.6881 59.3203 72.9871 59.412Z" fill="#F7E5B7"/>
<path id="Vector_90" d="M67.2774 59.412C67.5763 59.5038 67.1435 59.7177 66.9784 59.7177C66.8133 59.7177 66.6794 59.5809 66.6794 59.412C66.6794 59.2432 66.8133 59.1063 66.9784 59.1063C67.1435 59.1063 66.9784 59.3203 67.2774 59.412Z" fill="#F7E5B7"/>
<path id="Vector_91" d="M69.3098 63.0881C69.6088 63.1798 69.176 63.3938 69.0109 63.3938C68.8458 63.3938 68.7119 63.2569 68.7119 63.0881C68.7119 62.9193 68.8458 62.7824 69.0109 62.7824C69.176 62.7824 69.0109 62.9964 69.3098 63.0881Z" fill="#F7E5B7"/>
</g>
<path id="Vector_92" opacity="0.7" d="M76.971 48.3419C76.8227 47.7019 76.5033 47.1433 76.0639 46.7148L76.0622 46.713C75.471 46.129 74.6611 45.7801 73.7787 45.7801C68.2732 48.7791 63.4128 48.4003 58.9804 45.7801C56.6405 45.7801 54.7294 47.6369 54.6306 50.0106C54.6041 50.5964 54.6147 51.1786 54.6535 51.7589C54.687 52.3103 54.7506 52.8563 54.83 53.3969C54.837 53.4421 54.8423 53.4873 54.8512 53.5325V53.5343C55.2253 55.9243 55.9964 58.2113 56.7676 60.2488C58.2269 64.1051 61.9186 66.6977 65.9578 66.6977C66.2137 66.6977 66.466 66.6868 66.7166 66.6669H66.7184C68.1195 66.5585 69.4571 66.1408 70.6553 65.4701C70.8865 65.3435 71.1088 65.2079 71.3259 65.0597C71.3259 65.0597 71.3276 65.0597 71.3276 65.0579C72.9335 63.9876 74.234 62.4382 75.0281 60.5508C76.5439 56.9458 77.9627 52.6737 76.971 48.3419Z" fill="#F7E5B7"/>
</g>
<path id="Vector_93" d="M51.3401 23.5998C51.3401 23.5998 46.2177 20.7145 44.5545 23.5998C43.1355 26.0615 41.9022 38.5 41.5707 42.0987C41.5125 42.7304 41.6613 43.3619 41.9938 43.8972C42.9784 45.4824 45.164 45.6764 46.4 44.2883L62.2529 26.485L57.3245 23.9604L48.8759 32.9769L51.3401 23.5998Z" fill="#6318AF"/>
</g>
</g>
</svg>
