<svg width="32" height="32" viewBox="0 0 32 32" fill="none" xmlns="http://www.w3.org/2000/svg">
<g id="dinner plate">
<path id="Vector" d="M16 30C8.3 30 2 23.7 2 16C2 8.3 8.3 2 16 2C23.7 2 30 8.3 30 16C30 23.7 23.7 30 16 30ZM16 3C8.8 3 3 8.8 3 16C3 23.2 8.8 29 16 29C23.2 29 29 23.2 29 16C29 8.8 23.2 3 16 3Z" fill="#7E7E7E"/>
<path id="Vector_2" d="M16 25C15 25 14.1 24.8 13.2 24.5C12.9 24.4 12.8 24.1 12.9 23.9C13 23.6 13.3 23.5 13.5 23.6C15.3 24.2 17.2 24.1 18.9 23.5C19.2 23.4 19.4 23.5 19.5 23.8C19.6 24.1 19.5 24.3 19.2 24.4C18.2 24.8 17.1 25 16 25ZM21 23.4C20.8 23.4 20.7 23.3 20.6 23.2C20.4 23 20.5 22.7 20.7 22.5C22.8 21 24 18.5 24 16C24 14.1 23.3 12.3 22.1 10.8C21.9 10.6 21.9 10.3 22.2 10.1C22.4 9.9 22.7 9.9 22.9 10.2C24.3 11.8 25 13.9 25 16C25 18.9 23.6 21.6 21.3 23.3C21.2 23.3 21.1 23.4 21 23.4ZM18.9 8.5H18.7C17.4 8 16 7.9 14.6 8.1C14.3 8.1 14.1 8 14 7.7C14 7.4 14.1 7.2 14.4 7.1C16 6.9 17.6 7 19.1 7.5C19.4 7.6 19.5 7.9 19.4 8.1C19.3 8.4 19.1 8.5 18.9 8.5ZM11.5 23.7C11.4 23.7 11.3 23.7 11.2 23.6C8.6 22 7 19.1 7 16C7 13.4 8.2 10.9 10.2 9.1C10.4 9 10.7 9 10.9 9.2C11.1 9.4 11.1 9.7 10.8 9.9C9 11.4 8 13.6 8 16C8 18.8 9.4 21.3 11.8 22.8C12 22.9 12.1 23.3 12 23.5C11.8 23.6 11.7 23.7 11.5 23.7ZM12.5 13.5C12.2 13.5 12 13.3 12 13V7.5C12 7.2 12.2 7 12.5 7C12.8 7 13 7.2 13 7.5V13C13 13.3 12.8 13.5 12.5 13.5Z" fill="#7E7E7E"/>
<path id="Vector_3" d="M12.5 25C11.7 25 11 24.3 11 23.5V14.7L10.1 13.8C10 13.7 10 13.6 10 13.4V7.4C10 7.2 10.2 7 10.5 7C10.8 7 11 7.2 11 7.5V13.3L11.9 14.2C12 14.3 12 14.4 12 14.6V23.6C12 23.9 12.2 24.1 12.5 24.1C12.8 24.1 13 23.9 13 23.6V14.6C13 14.5 13.1 14.3 13.1 14.2L14 13.3V7.5C14 7.2 14.2 7 14.5 7C14.8 7 15 7.2 15 7.5V13.5C15 13.6 14.9 13.8 14.9 13.9L14 14.7V23.5C14 24.3 13.3 25 12.5 25ZM20 25C19.2 25 18.5 24.3 18.5 23.5V15.4C18.5 15 18.4 14.7 18.2 14.5C18.1 14.4 18 14.2 17.9 14.1C17.2 13.2 17 12.3 17.1 11.2C17.3 10 17.6 9 18.2 8.2C18.4 7.9 18.8 7.6 19.1 7.4C19.7 7 20.4 7 21 7.4C21.3 7.6 21.7 7.9 21.9 8.2C22.5 9 22.9 10 23 11.2C23.1 12.3 22.9 13.2 22.2 14.1C22.1 14.2 22 14.4 21.9 14.5C21.7 14.8 21.6 15.1 21.6 15.4V23.5C21.5 24.3 20.8 25 20 25ZM20 8C19.9 8 19.7 8 19.6 8.1C19.4 8.3 19.1 8.5 19 8.7C18.5 9.4 18.2 10.2 18.1 11.2C18 12 18.2 12.7 18.7 13.4C18.8 13.5 18.9 13.6 19 13.8C19.4 14.2 19.6 14.8 19.6 15.4V23.5C19.6 23.8 19.8 24 20.1 24C20.4 24 20.6 23.8 20.6 23.5V15.4C20.6 14.8 20.8 14.2 21.2 13.8C21.3 13.7 21.4 13.6 21.5 13.4C22 12.7 22.2 12 22.1 11.2C22 10.2 21.7 9.3 21.2 8.7L20.6 8.1C20.3 8 20.1 8 20 8Z" fill="#7E7E7E"/>
</g>
</svg>
